<?xml version="1.0" standalone="no"?> <!DOCTYPE svg PUBLIC "-//W3C//DTD SVG 1.0//EN" "http://www.w3.org/TR/2001/REC-SVG-20010904/DTD/svg10.dtd" > <svg xmlns="http://www.w3.org/2000/svg" width="100%" height="100%">
<defs >
<font id="codelight" horiz-adv-x="524" ><font-face
    font-family="Code Light"
    units-per-em="1000"
    panose-1="2 0 5 6 3 0 0 2 0 4"
    ascent="800"
    descent="-230"
    alphabetic="0" />
<missing-glyph horiz-adv-x="483" d="M13 0V663H469V0H13ZM450 632L250 333L450 33V632ZM437 18L241 315L46 18H437ZM241 351L437 645H46L241 351ZM232 333L32 632V33L232 333Z" />
<glyph unicode=" " glyph-name="space" horiz-adv-x="352" />
<glyph unicode="!" glyph-name="exclam" horiz-adv-x="102" d="M44 697H60V89H44V697ZM36 26T52 26T68 10Q68 4 64 0T52 -5T41 -1T36 10Q36 26 52 26Z" />
<glyph unicode="&quot;" glyph-name="quotedbl" horiz-adv-x="169" d="M44 701H60V503H44V701ZM107 701H123V503H107V701Z" />
<glyph unicode="$" glyph-name="dollar" horiz-adv-x="529" d="M256 708V767H270V708Q350 707 411 668T487 556L488 548L473 545L472 553Q463 597 434 629Q375 691 270 693V359Q306 355 323 353T370 345T417 331T454 309T485 276T503 229Q518 160 486 105T395
23T270 -7V-72H256V-7Q203 -5 154 13T67 71T24 164L23 171L39 173L40 166Q47 94 112 52T256 8V345Q215 349 191 353T133 367T81 394T48 438T30 505Q24 571 63 622Q94 662 145 684T256 708ZM488 226Q483 250 473 267T444 297T409 317T365 330T320 337T270 343V8Q332
10 386 34T470 110T488 226ZM76 613Q40 569 45 506Q48 471 61 446T92 406T140 382T194 368T256 360V693Q134 689 76 613Z" />
<glyph unicode="&amp;" glyph-name="ampersand" horiz-adv-x="572" d="M250 368H574V353H494V154Q483 85 428 40T270 -7Q148 -9 84 52T27 198Q33 253 66 297T167 358L199 361V363L167 367Q62 401 62 531Q62 583 89 623T157 684T249 710T345 703T425 660T472 582L457
579Q447 621 415 649T340 688T252 695T167 672T103 617T77 532Q77 462 118 415T250 368ZM250 353Q150 356 99 310T43 195Q37 120 96 64T270 8Q364 8 416 50T479 156V353H250Z" />
<glyph unicode="&apos;" glyph-name="quotesingle" horiz-adv-x="117" d="M50 701H66V503H50V701Z" />
<glyph unicode="," glyph-name="comma" horiz-adv-x="105" d="M10 -95H-6L42 26H69L10 -95Z" />
<glyph unicode="." glyph-name="period" horiz-adv-x="110" d="M58 35Q78 35 78 15Q78 8 73 3T58 -3Q51 -3 46 2T40 15Q40 35 58 35Z" />
<glyph unicode="0" glyph-name="zero" horiz-adv-x="552" d="M353 689T276 689T142 639T60 514T34 352T59 189T142 64T276 14T410 64T492 189T518 351T493 514T410 639ZM358 -2T276 -2T134 50T47 181T20 351T47 521T134 652T276 705T418 653T505 522T532 352T505
182T418 51Z" />
<glyph unicode="1" glyph-name="one" horiz-adv-x="237" d="M159 659L10 453L-1 461L170 700H186V0H171V654L174 682H173L159 659Z" />
<glyph unicode="2" glyph-name="two" horiz-adv-x="509" d="M36 477H22Q22 569 83 635T255 702T428 642T489 496Q488 389 392 309L44 16H483V1H22V16L380 320Q470 398 473 493Q475 573 417 630T255 687T94 625T36 477Z" />
<glyph unicode="3" glyph-name="three" horiz-adv-x="506" d="M243 8Q149 8 97 50T34 156L19 154Q30 84 86 39T243 -7Q364 -7 429 55T486 198Q481 253 439 297T326 359L294 361V363L326 367Q386 387 418 432T451 531Q451 583 424 623T356 684T264 710T168 703T88
660T41 582L56 579Q66 621 98 649T173 688T261 695T346 672T410 617T436 532Q436 465 386 417T243 368H194V353H195H196H197H198H200H201H203H205H207H209H212H214H217H221H224H228H233H243Q305 353 354 334T428 285T465 218T466 144T429 77T354 27T243 8Z" />
<glyph unicode="4" glyph-name="four" horiz-adv-x="504" d="M10 196L408 702H424V196H489V181H424V0H409V181H10V196ZM29 196H409V656L412 684H411L397 661L29 196Z" />
<glyph unicode="5" glyph-name="five" horiz-adv-x="508" d="M441 699V684H50V406Q123 441 196 449T351 429Q416 402 451 348T487 227Q488 135 424 68T245 0Q157 0 100 41T19 148L33 153Q55 91 108 54T245 16Q353 16 412 78T471 227Q471 286 440 337T349 414Q225
467 53 391L35 400V684V699H50H441Z" />
<glyph unicode="6" glyph-name="six" horiz-adv-x="517" d="M330 434T258 434T133 403T56 326T32 225T56 125T133 47T258 16T383 47T460 124T484 225T460 325T383 403ZM56 355L301 701H320L138 444L99 398L100 397L136 422Q189 450 258 450Q335 450 391 417T473
333T499 225T474 117T392 34T258 0Q177 0 119 37T37 128T17 243T56 355Z" />
<glyph unicode="7" glyph-name="seven" horiz-adv-x="494" d="M11 699H480V683L106 0H87L461 684H11V699Z" />
<glyph unicode="8" glyph-name="eight" horiz-adv-x="518" d="M187 7T259 7T384 33T461 98T485 183T461 268T384 334T259 360T134 334T57 269T33 184T57 99T134 33ZM259 700Q182 700 124 658T66 538Q66 472 116 424T259 375T401 423T451 539Q451 617 393 658T259
700ZM342 374L310 370L309 368L342 366Q399 352 437 318T490 242T498 157T464 76T383 16T259 -8T136 15T56 75T21 156T27 242T79 317T174 365L217 368V370L175 374Q115 394 83 439T51 539Q52 623 114 669T259 715Q357 715 412 663T467 538Q467 484 435 439T342
374Z" />
<glyph unicode="9" glyph-name="nine" horiz-adv-x="520" d="M191 267T263 267T388 298T466 375T490 476T466 577T389 655T263 686T138 655T61 578T37 477T61 376T138 298ZM465 347L220 0H202L383 257L422 304H421L385 279Q332 251 263 251Q186 251 130 284T48
368T22 476T47 585T129 668T263 702Q344 702 402 665T484 574T504 458T465 347Z" />
<glyph unicode=":" glyph-name="colon" horiz-adv-x="120" d="M58 35Q78 35 78 15Q78 8 73 3T58 -3Q51 -3 46 2T40 15Q40 35 58 35ZM58 362Q78 362 78 342Q78 335 73 330T58 324Q51 324 46 329T40 342Q40 362 58 362Z" />
<glyph unicode=";" glyph-name="semicolon" horiz-adv-x="120" d="M58 362Q78 362 78 342Q78 335 73 330T58 324Q51 324 46 329T40 342Q40 362 58 362ZM1 -95H17L76 26H48L1 -95Z" />
<glyph unicode="?" glyph-name="question" horiz-adv-x="481" d="M229 203L230 89H214V204Q214 229 222 248T249 284T281 307T324 330Q359 349 379 364T419 412T439 490Q441 570 383 627T221 684Q149 684 99 653T24 569Q21 570 17 572T11 576Q37 632 90 665T221
699Q330 699 393 638T455 491Q454 453 444 424T411 373T372 341T326 314Q298 299 288 293T260 273T235 242T229 203ZM222 26Q228 26 232 22T237 10Q237 4 233 0T222 -5Q215 -5 211 -1T206 10Q206 26 222 26Z" />
<glyph unicode="A" glyph-name="A" horiz-adv-x="588" d="M293 689L123 250H464L293 689ZM566 0L470 235H116L21 0H4L285 710H302L583 0H566Z" />
<glyph unicode="B" glyph-name="B" horiz-adv-x="562" d="M63 683V382H330Q427 382 463 471Q487 533 463 594Q427 683 330 683H63ZM330 699Q384 699 421 672T477 600Q502 533 477 465Q452 402 395 378Q444 369 479 338T528 264T539 176T516 90T455 26T358 0H47V699H330ZM63
366V15H358Q411 15 450 41T507 106T525 190T508 275T451 340T358 366H63Z" />
<glyph unicode="C" glyph-name="C" horiz-adv-x="710" d="M683 486H666Q643 540 600 584Q505 682 369 682T138 584Q42 485 42 349Q42 212 138 114Q234 15 369 15T600 114Q644 159 666 211H683Q658 150 611 102Q511 -1 369 -1T127 102T27 349Q27 492 127 595T369
698T611 595Q658 547 683 486Z" />
<glyph unicode="D" glyph-name="D" horiz-adv-x="651" d="M61 15H282Q387 15 464 64T575 188T610 349T576 510T464 634T282 684H61V15ZM46 699H282Q392 699 472 647T589 518T625 350T589 182T473 52T282 0H46V699Z" />
<glyph unicode="E" glyph-name="E" horiz-adv-x="461" d="M63 342V15H435V0H49H47V699H433V684H63V358H425V342H63Z" />
<glyph unicode="F" glyph-name="F" horiz-adv-x="441" d="M62 342V0H47V699H424V684H62V358H382V342H62Z" />
<glyph unicode="G" glyph-name="G" horiz-adv-x="725" d="M684 490H667Q632 582 550 636T370 690Q236 690 138 589Q43 487 43 349Q43 209 138 109Q234 8 370 8Q477 8 571 83T685 267H376V283H705Q702 249 688 213Q654 119 560 55T370 -9Q228 -9 127 97Q27 202
27 349Q27 494 127 601Q227 706 370 706Q475 706 562 647T684 490Z" />
<glyph unicode="H" glyph-name="H" horiz-adv-x="563" d="M62 699V362H501V699H517V0H501V347H62V0H47V699H62Z" />
<glyph unicode="I" glyph-name="I" horiz-adv-x="341" d="M327 699V685H178V15H327V0H14V15H163V685H14V699H327Z" />
<glyph unicode="J" glyph-name="J" horiz-adv-x="395" d="M351 699V296Q351 150 256 75T10 0V16Q155 16 245 86T336 296V685H120V699H351Z" />
<glyph unicode="K" glyph-name="K" horiz-adv-x="477" d="M47 699H62V0H47V699ZM85 342V358L433 699H453L99 351L496 0H473L85 342Z" />
<glyph unicode="L" glyph-name="L" horiz-adv-x="455" d="M63 699V16H439V0H47V699H63Z" />
<glyph unicode="M" glyph-name="M" horiz-adv-x="707" d="M62 677V0H47V700H63L353 271L644 700H660V0H645V677L360 253H347L62 677Z" />
<glyph unicode="N" glyph-name="N" horiz-adv-x="588" d="M63 0H47V701L61 700L526 28V700H541V0H525L63 668V0Z" />
<glyph unicode="O" glyph-name="O" horiz-adv-x="758" d="M719 209T719 350T620 592Q520 694 378 694Q237 694 137 592T37 350T137 108T378 6Q520 6 620 108Q719 209 719 350ZM21 203T21 350T126 604Q229 710 378 710T631 604Q736 497 736 350T631 96Q527 -10
378 -10T126 96Q21 203 21 350Z" />
<glyph unicode="P" glyph-name="P" horiz-adv-x="521" d="M47 692V700H55H289Q356 700 405 668T476 588T498 483T476 379T405 298T289 266H63V0H47V692ZM63 281H289Q351 281 396 311T462 385T483 482T463 579T397 654T289 684H63V281Z" />
<glyph unicode="Q" glyph-name="Q" horiz-adv-x="766" d="M724 210T724 350T624 592T382 694Q241 694 141 592T41 350T141 108T382 6Q513 6 610 95L399 282H423L622 106L624 108Q724 210 724 350ZM635 96L743 0H717L622 84Q522 -10 382 -10Q233 -10 130 96Q25
203 25 350T130 604Q233 710 382 710T635 604Q740 497 740 350T635 96Z" />
<glyph unicode="R" glyph-name="R" horiz-adv-x="527" d="M62 684V0H47V692V700H55H289Q356 700 405 670T476 594T498 496T476 397T405 322T289 291H176L498 0H475L153 291V306H289Q351 306 396 334T462 404T483 495T463 586T397 656T289 684H62Z" />
<glyph unicode="S" glyph-name="S" horiz-adv-x="549" d="M485 545L484 553Q475 597 446 629Q384 695 271 693Q217 692 168 672T88 613Q52 569 57 506Q61 456 85 426T147 383T230 365T321 355T407 340T476 302T516 229Q528 176 511 130T457 55T373 10T274 -7Q189
-7 117 39T36 164L35 171L51 173L52 166Q60 92 128 50T275 8Q376 8 448 68T500 226Q491 268 462 293T393 327T307 340T216 351T133 371T71 418T42 505Q36 571 75 622Q125 687 220 704T399 682T499 556L500 548L485 545Z" />
<glyph unicode="T" glyph-name="T" horiz-adv-x="521" d="M266 -3H251V684H9V700H508V684H266V-3Z" />
<glyph unicode="U" glyph-name="U" horiz-adv-x="589" d="M295 -8Q200 -8 125 45T50 190V699H66V189Q66 104 136 56T295 8T454 56T524 190V699H540V189Q540 128 502 82T410 14T295 -8Z" />
<glyph unicode="V" glyph-name="V" horiz-adv-x="590" d="M295 9L568 699H585L304 -11H287L6 699H23L295 9Z" />
<glyph unicode="W" glyph-name="W" horiz-adv-x="851" d="M597 -7L424 482L252 -7H238L4 699H20L245 19L413 495H435L603 19L829 699H845L611 -7H597Z" />
<glyph unicode="X" glyph-name="X" horiz-adv-x="542" d="M10 699H29L272 363L516 699H534L281 349L534 0H516L272 336L29 0H10L263 349L10 699Z" />
<glyph unicode="Y" glyph-name="Y" horiz-adv-x="539" d="M4 699H23L269 305L515 699H534L277 289V0H261V289L4 699Z" />
<glyph unicode="Z" glyph-name="Z" horiz-adv-x="553" d="M32 683V699H526L537 681L30 15H539V0H19L10 14L518 683H32Z" />
<glyph unicode="`" glyph-name="grave" horiz-adv-x="246" d="M159 726H140L74 801H101L159 726Z" />
<glyph unicode="a" glyph-name="a" horiz-adv-x="588" d="M293 689L123 250H464L293 689ZM566 0L470 235H116L21 0H4L285 710H302L583 0H566Z" />
<glyph unicode="b" glyph-name="b" horiz-adv-x="562" d="M63 683V382H330Q427 382 463 471Q487 533 463 594Q427 683 330 683H63ZM330 699Q384 699 421 672T477 600Q502 533 477 465Q452 402 395 378Q444 369 479 338T528 264T539 176T516 90T455 26T358 0H47V699H330ZM63
366V15H358Q411 15 450 41T507 106T525 190T508 275T451 340T358 366H63Z" />
<glyph unicode="c" glyph-name="c" horiz-adv-x="712" d="M683 486H666Q643 540 600 584Q505 682 369 682T138 584Q42 485 42 349Q42 212 138 114Q234 15 369 15T600 114Q644 159 666 211H683Q658 150 611 102Q511 -1 369 -1T127 102T27 349Q27 492 127 595T369
698T611 595Q658 547 683 486Z" />
<glyph unicode="d" glyph-name="d" horiz-adv-x="651" d="M61 15H282Q387 15 464 64T575 188T610 349T576 510T464 634T282 684H61V15ZM46 699H282Q392 699 472 647T589 518T625 350T589 182T473 52T282 0H46V699Z" />
<glyph unicode="e" glyph-name="e" horiz-adv-x="461" d="M63 342V15H435V0H49H47V699H433V684H63V358H425V342H63Z" />
<glyph unicode="f" glyph-name="f" horiz-adv-x="441" d="M62 342V0H47V699H424V684H62V358H382V342H62Z" />
<glyph unicode="g" glyph-name="g" horiz-adv-x="721" d="M684 490H667Q632 582 550 636T370 690Q236 690 138 589Q43 487 43 349Q43 209 138 109Q234 8 370 8Q477 8 571 83T685 267H376V283H705Q702 249 688 213Q654 119 560 55T370 -9Q228 -9 127 97Q27 202
27 349Q27 494 127 601Q227 706 370 706Q475 706 562 647T684 490Z" />
<glyph unicode="h" glyph-name="h" horiz-adv-x="563" d="M62 699V362H501V699H517V0H501V347H62V0H47V699H62Z" />
<glyph unicode="i" glyph-name="i" horiz-adv-x="360" d="M337 699V685H188V15H337V0H24V15H173V685H24V699H337Z" />
<glyph unicode="j" glyph-name="j" horiz-adv-x="394" d="M348 699V296Q348 150 253 75T7 0V16Q152 16 242 86T333 296V685H117V699H348Z" />
<glyph unicode="k" glyph-name="k" horiz-adv-x="477" d="M47 699H62V0H47V699ZM85 342V358L450 699H470L99 351L487 0H464L85 342Z" />
<glyph unicode="l" glyph-name="l" horiz-adv-x="455" d="M63 699V16H439V0H47V699H63Z" />
<glyph unicode="m" glyph-name="m" horiz-adv-x="707" d="M62 677V0H47V700H63L353 271L644 700H660V0H645V677L360 253H347L62 677Z" />
<glyph unicode="n" glyph-name="n" horiz-adv-x="588" d="M63 0H47V701L61 700L526 28V700H541V0H525L63 668V0Z" />
<glyph unicode="o" glyph-name="o" horiz-adv-x="770" d="M727 209T727 350T628 592Q528 694 386 694Q245 694 145 592T45 350T145 108T386 6Q528 6 628 108Q727 209 727 350ZM29 203T29 350T134 604Q237 710 386 710T639 604Q744 497 744 350T639 96Q535 -10
386 -10T134 96Q29 203 29 350Z" />
<glyph unicode="p" glyph-name="p" horiz-adv-x="525" d="M47 692V700H55H289Q356 700 405 668T476 588T498 483T476 379T405 298T289 266H63V0H47V692ZM63 281H289Q351 281 396 311T462 385T483 482T463 579T397 654T289 684H63V281Z" />
<glyph unicode="q" glyph-name="q" horiz-adv-x="766" d="M720 350Q720 492 620 593T378 694T137 593T37 350T137 108T378 6Q509 6 606 95L395 282H419L618 106L620 108Q720 210 720 350ZM631 96L739 0H713L618 84Q518 -10 378 -10Q231 -10 126 96T21 350T126
604T378 710Q526 710 632 605T738 350Q738 205 631 96Z" />
<glyph unicode="r" glyph-name="r" horiz-adv-x="529" d="M62 684V0H47V692V700H55H289Q356 700 405 670T476 594T498 496T476 397T405 322T289 291H176L498 0H475L153 291V306H289Q351 306 396 334T462 404T483 495T463 586T397 656T289 684H62Z" />
<glyph unicode="s" glyph-name="s" horiz-adv-x="544" d="M477 545L476 553Q467 597 438 629Q376 695 263 693Q209 692 160 672T80 613Q44 569 49 506Q53 456 77 426T139 383T221 365T312 355T398 340T467 302T507 229Q519 176 502 130T449 55T365 10T266 -7Q181
-7 109 39T28 164L27 171L43 173L44 166Q52 92 120 50T267 8Q368 8 440 68T492 226Q483 268 454 293T385 327T299 340T208 351T125 371T63 418T34 505Q28 571 67 622Q117 687 212 704T391 682T491 556L492 548L477 545Z" />
<glyph unicode="t" glyph-name="t" horiz-adv-x="521" d="M266 0H251V684H9V700H508V684H266V0Z" />
<glyph unicode="u" glyph-name="u" horiz-adv-x="582" d="M291 -8Q196 -8 121 45T46 190V699H62V189Q62 104 132 56T291 8T450 56T520 190V699H536V189Q536 128 498 82T406 14T291 -8Z" />
<glyph unicode="v" glyph-name="v" horiz-adv-x="590" d="M295 9L568 699H585L304 -11H287L6 699H23L295 9Z" />
<glyph unicode="w" glyph-name="w" horiz-adv-x="851" d="M597 -7L424 482L252 -7H238L4 699H20L245 19L413 495H435L603 19L829 699H845L611 -7H597Z" />
<glyph unicode="x" glyph-name="x" horiz-adv-x="542" d="M10 699H29L272 363L516 699H534L281 349L534 0H516L272 336L29 0H10L263 349L10 699Z" />
<glyph unicode="y" glyph-name="y" horiz-adv-x="539" d="M4 699H23L269 305L515 699H534L277 289V0H261V289L4 699Z" />
<glyph unicode="z" glyph-name="z" horiz-adv-x="554" d="M32 683V699H526L536 681L30 15H539V0H19L10 14L518 683H32Z" />
</font>
</defs>
</svg>
