<?xml version="1.0" standalone="no"?> <!DOCTYPE svg PUBLIC "-//W3C//DTD SVG 1.0//EN" "http://www.w3.org/TR/2001/REC-SVG-20010904/DTD/svg10.dtd" > <svg xmlns="http://www.w3.org/2000/svg" width="100%" height="100%">
<defs >
<font id="codebold" horiz-adv-x="529" ><font-face
    font-family="Code Bold"
    units-per-em="1000"
    panose-1="2 0 5 6 3 0 0 2 0 4"
    ascent="800"
    descent="-230"
    alphabetic="0" />
<missing-glyph horiz-adv-x="483" d="M-17 0V668H469V0H-17ZM365 451L286 335L365 218V451ZM316 103L226 240L137 103H316ZM226 430L315 564H138L226 430ZM165 335L87 451V217L165 335Z" />
<glyph unicode=" " glyph-name="space" horiz-adv-x="352" />
<glyph unicode="!" glyph-name="exclam" horiz-adv-x="205" d="M32 700H137V154H32V700ZM82 115Q111 115 128 98T146 52Q146 29 128 12T82 -6Q58 -6 40 11T22 52Q22 80 39 97T82 115Z" />
<glyph unicode="&quot;" glyph-name="quotedbl" horiz-adv-x="288" d="M2 698H99V450H2V698ZM142 698H239V450H142V698Z" />
<glyph unicode="$" glyph-name="dollar" horiz-adv-x="550" d="M205 704V758H305V704Q379 691 432 649T494 532L395 522Q388 553 363 575T305 602V398Q394 395 453 348T512 210Q512 113 456 66T305 1V-60H205V1Q128 14 69 62T2 185V192L103 193L104 192Q111 161
141 134T205 97V308Q147 302 99 330T28 405T6 508T45 615Q101 688 205 704ZM305 297V97Q351 96 380 128T412 199T387 269T305 297ZM124 557H123Q92 508 119 459T205 410V603Q148 589 124 557Z" />
<glyph unicode="&amp;" glyph-name="ampersand" horiz-adv-x="600" d="M474 560L383 532Q350 606 266 606Q214 606 176 579T137 506Q137 464 162 436T243 407H568V307H498V190Q498 104 436 50T262 -6Q133 -8 65 59T6 220Q12 263 38 302T112 360Q37 404 37 505Q37
599 105 652T266 706Q419 706 474 560ZM242 307Q177 309 144 281T106 210Q103 164 143 128T261 92Q324 92 361 120T398 194V307H242Z" />
<glyph unicode="&apos;" glyph-name="quotesingle" horiz-adv-x="141" d="M5 701H101V453H5V701Z" />
<glyph unicode="," glyph-name="comma" horiz-adv-x="214" d="M96 -79H-5L68 105H185L96 -79Z" />
<glyph unicode="." glyph-name="period" horiz-adv-x="156" d="M57 120Q85 120 102 103T120 58Q120 34 102 16T57 -3Q33 -3 15 16T-3 58Q-3 85 14 102T57 120Z" />
<glyph unicode="0" glyph-name="zero" horiz-adv-x="552" d="M329 574T253 574T135 503T93 334T135 166T253 95T371 166T413 334Q413 432 371 503ZM253 -2Q171 -2 112 48T25 172T-3 334T24 496T111 621T253 671Q373 671 441 571T509 334T441 98T253 -2Z" />
<glyph unicode="1" glyph-name="one" horiz-adv-x="269" d="M217 0H117V510L23 382L-53 437L136 703H217V0Z" />
<glyph unicode="2" glyph-name="two" horiz-adv-x="531" d="M104 469L3 477Q17 577 80 640T247 704Q323 704 382 673T468 593T501 487T478 375T395 281L169 97H490V0H-1V78L328 358H327Q381 397 392 455T364 558T247 603Q185 603 149 567T104 469Z" />
<glyph unicode="3" glyph-name="three" horiz-adv-x="519" d="M153 304V399H258Q306 399 330 431T354 503Q354 552 315 578T221 605Q179 605 145 583T101 521L10 543Q28 619 87 660T221 701Q315 701 384 650T454 503Q454 400 390 357Q482 303 480 194Q479 112
413 52T227 -9Q122 -9 63 43T-10 174L84 191Q91 146 128 116T227 85Q305 85 347 121T385 204Q381 242 351 273T258 304H153Z" />
<glyph unicode="4" glyph-name="four" d="M-13 229L358 700H436V256H493V158H436V0H336V158H-13V229ZM119 254H338V525L119 254Z" />
<glyph unicode="5" glyph-name="five" horiz-adv-x="534" d="M-1 159L92 197Q139 102 238 102Q312 102 352 144T392 244Q392 282 371 316T311 367Q189 417 65 344L8 370V703H454V605H110V465Q236 506 347 461Q417 432 455 374T494 244Q495 145 427 73T238 0Q62 0 -1 159Z" />
<glyph unicode="6" glyph-name="six" horiz-adv-x="542" d="M248 380Q175 380 135 339T94 240T134 143T248 102Q322 102 362 142T402 240T362 338T248 380ZM36 380L264 700H388L217 459Q255 473 303 470T387 447Q443 415 473 359T503 240Q503 142 436 71T248 0T61
71T-7 240Q-7 315 36 380Z" />
<glyph unicode="7" glyph-name="seven" horiz-adv-x="507" d="M-7 700H486V631L141 0H25L353 601H-7V700Z" />
<glyph unicode="8" glyph-name="eight" horiz-adv-x="533" d="M246 87Q318 87 358 122T399 202T359 280T246 314Q175 314 135 281T94 202T134 122T246 87ZM294 617T246 617T161 588T123 511Q123 471 155 439T246 407Q305 407 337 439T370 512Q370 559 332 588ZM470
509Q470 468 447 426T382 366Q440 344 470 299T500 203Q500 118 433 56T246 -7T60 53T-6 203Q-6 251 26 296T115 366Q64 387 44 428T23 510Q24 603 91 654T246 706Q352 706 411 648T470 509Z" />
<glyph unicode="9" glyph-name="nine" horiz-adv-x="548" d="M181 323T255 323T369 365T410 464Q410 522 370 563T255 604T141 563T100 464Q100 407 140 365ZM470 323L240 0H115L287 244Q248 229 200 232T116 255Q59 288 29 344T-2 464Q-2 563 66 635T255 707T444
635T513 464Q513 390 470 323Z" />
<glyph unicode=":" glyph-name="colon" horiz-adv-x="149" d="M53 112Q79 112 95 96T112 54Q112 32 95 15T53 -3Q30 -3 14 14T-3 54Q-3 80 13 96T53 112ZM53 385Q79 385 95 369T112 327Q112 304 95 287T53 270Q30 270 14 287T-3 327Q-3 353 13 369T53 385Z" />
<glyph unicode=";" glyph-name="semicolon" horiz-adv-x="140" d="M52 385Q78 385 94 369T111 327Q111 304 94 287T52 270Q29 270 13 287T-4 327Q-4 353 12 369T52 385ZM-56 -98H45L134 86H17L-56 -98Z" />
<glyph unicode="?" glyph-name="question" horiz-adv-x="510" d="M266 227L267 146H165V228Q165 260 173 283T203 325T239 351T286 377H285Q310 391 322 399T348 428T362 477Q364 527 324 564T215 601Q114 601 62 494L-20 541Q15 615 74 660T215 705Q332 705 401
637T469 475Q468 441 458 413T438 368T403 333T368 308T328 286Q309 276 304 273T287 262T270 245T266 227ZM215 116Q244 116 262 98T281 50Q281 26 262 6T215 -14Q189 -14 171 6T152 50Q152 79 170 97T215 116Z" />
<glyph unicode="A" glyph-name="A" horiz-adv-x="588" d="M276 548L188 301H362L276 548ZM485 0L401 206H150Q92 68 66 0H-43L238 709H312L593 0H485Z" />
<glyph unicode="B" glyph-name="B" horiz-adv-x="570" d="M116 603V421H305Q344 421 366 449T389 512T368 574T307 603H116ZM16 699H307Q370 699 413 668T477 584Q500 534 488 478T426 385Q482 361 508 314T535 211Q535 126 481 63T332 0H16V699ZM116 321V98H332Q380
98 407 131T434 210T407 288T332 321H116Z" />
<glyph unicode="C" glyph-name="C" horiz-adv-x="710" d="M3 348Q3 492 103 599Q204 703 345 703Q465 703 553 634T671 445H571Q544 522 484 562T345 603Q245 603 173 528T101 348Q101 245 173 170T345 95Q425 95 487 139T577 262H676Q646 142 556 69T345 -5Q202
-5 103 99Q3 206 3 348Z" />
<glyph unicode="D" glyph-name="D" horiz-adv-x="651" d="M118 101H268Q383 101 447 174T512 349T448 524T268 598H118V101ZM17 699H268Q351 699 418 669T526 590T590 478T612 349T590 221T527 109T418 30T268 0H17V699Z" />
<glyph unicode="E" glyph-name="E" horiz-adv-x="468" d="M114 299V101H439V0H12V699H438V598H114V401H431V299H114Z" />
<glyph unicode="F" glyph-name="F" horiz-adv-x="449" d="M113 299V0H12V699H429V598H113V401H393V299H113Z" />
<glyph unicode="G" glyph-name="G" horiz-adv-x="725" d="M680 449H572Q553 527 488 565T347 603Q244 603 174 531T104 349T174 166T347 92Q417 92 477 127T567 234H308V335H685Q677 243 666 214V215Q631 118 539 57T347 -5Q199 -5 101 95T3 349T102 603T347 704Q400
704 451 690T549 647T632 567T680 449Z" />
<glyph unicode="H" glyph-name="H" horiz-adv-x="563" d="M116 699V404H412V699H514V0H412V304H116V0H15V699H116Z" />
<glyph unicode="I" glyph-name="I" horiz-adv-x="389" d="M355 699V599H225V101H355V0H-6V101H124V599H-6V699H355Z" />
<glyph unicode="J" glyph-name="J" horiz-adv-x="404" d="M362 699V303Q362 154 255 77T-24 0V101Q102 101 181 152T261 303V599H72V699H362Z" />
<glyph unicode="K" glyph-name="K" horiz-adv-x="525" d="M17 699H117V0H17V699ZM136 324V375L380 699H507L240 352L535 0H403L136 324Z" />
<glyph unicode="L" glyph-name="L" horiz-adv-x="470" d="M114 699V101H443V0H13V699H114Z" />
<glyph unicode="M" glyph-name="M" horiz-adv-x="707" d="M120 493V0H19V700H101L332 360L563 700H643V0H543V493L360 221H303L120 493Z" />
<glyph unicode="N" glyph-name="N" horiz-adv-x="588" d="M117 0H16V701L94 700L435 207V700H535V0H455L117 489V0Z" />
<glyph unicode="O" glyph-name="O" horiz-adv-x="758" d="M609 245T609 350T535 531Q459 607 354 607T175 531Q100 456 100 350T175 169Q249 93 354 93T535 169Q609 245 609 350ZM-2 204T-2 350T102 603Q206 709 354 709Q501 709 607 603Q711 496 711 350T607
97Q503 -9 354 -9T102 97Q-2 204 -2 350Z" />
<glyph unicode="P" glyph-name="P" horiz-adv-x="527" d="M14 700H270Q377 700 437 631T497 466T437 302T270 233H116V0H14V700ZM116 333H270Q330 333 363 372T397 465T364 558T270 598H116V333Z" />
<glyph unicode="Q" glyph-name="Q" horiz-adv-x="766" d="M616 350Q616 454 541 531Q467 607 361 607Q257 607 181 531Q106 454 106 350Q106 245 181 168Q246 103 334 92T503 129L309 302H449L568 194Q616 259 616 350ZM758 22V0H648L582 59Q465 -18 329 -7T109
97Q5 211 5 350Q5 496 109 603Q213 709 361 709Q508 709 614 603Q718 496 718 350Q718 230 642 131L758 22Z" />
<glyph unicode="R" glyph-name="R" horiz-adv-x="527" d="M154 307V355H272Q332 355 365 391T399 477Q399 526 366 562T272 598H117V0H17V700H272Q380 700 440 634T500 477Q500 399 453 339T319 263L540 0H409L154 307Z" />
<glyph unicode="S" glyph-name="S" horiz-adv-x="554" d="M498 523L398 519Q388 563 347 586T255 608Q168 606 128 555Q108 529 111 490Q112 469 123 454T147 430T184 415T224 407T270 402Q313 397 345 389T415 366T477 322T512 253Q517 228 517 207Q517 111 438
53T257 -6Q201 -6 147 14T52 79T5 183L4 202L106 204L107 189V193Q112 147 158 121T258 94Q319 94 367 125T415 208Q415 218 412 232Q408 251 394 264T356 284T311 294T258 301Q219 305 191 310T128 327T70 358T30 408T10 482V481Q4 556 48 614Q82 658 139 682T260
707Q349 707 417 660T498 523Z" />
<glyph unicode="T" glyph-name="T" horiz-adv-x="534" d="M293 -3H192V598H-20V700H504V598H293V-3Z" />
<glyph unicode="U" glyph-name="U" horiz-adv-x="589" d="M277 -7Q213 -7 156 16T58 91T18 210V699H120V209Q120 155 168 125T277 94Q337 94 385 125T433 210V699H535V209Q535 142 495 91T398 17T277 -7Z" />
<glyph unicode="V" glyph-name="V" horiz-adv-x="602" d="M277 176L487 699H595L314 -2H240L-41 699H69L277 176Z" />
<glyph unicode="W" glyph-name="W" horiz-adv-x="851" d="M518 -6L397 333L278 -6H203L-30 699H75L242 194L357 521H438L552 195L720 699H826L593 -6H518Z" />
<glyph unicode="X" glyph-name="X" horiz-adv-x="601" d="M-42 699H82L272 437L463 699H586L333 348L586 0H463L272 262L82 0H-42L211 348L-42 699Z" />
<glyph unicode="Y" glyph-name="Y" horiz-adv-x="567" d="M-50 699H69L260 392L451 699H571L311 285V0H209V285L-50 699Z" />
<glyph unicode="Z" glyph-name="Z" horiz-adv-x="533" d="M1 607V699H475L509 635L113 90H503V0H12L-29 56L375 607H1Z" />
<glyph unicode="`" glyph-name="grave" horiz-adv-x="246" d="M202 610H107L-6 717H130L202 610Z" />
<glyph unicode="a" glyph-name="a" horiz-adv-x="588" d="M276 548L188 301H362L276 548ZM485 0L401 206H150Q92 68 66 0H-43L238 709H312L593 0H485Z" />
<glyph unicode="b" glyph-name="b" horiz-adv-x="562" d="M116 603V421H305Q344 421 366 449T389 512T368 574T307 603H116ZM16 699H307Q370 699 413 668T477 584Q500 534 488 478T426 385Q482 361 508 314T535 211Q535 126 481 63T332 0H16V699ZM116 321V98H332Q380
98 407 131T434 210T407 288T332 321H116Z" />
<glyph unicode="c" glyph-name="c" horiz-adv-x="710" d="M3 348Q3 492 103 599Q204 703 345 703Q465 703 553 634T671 445H571Q544 522 484 562T345 603Q245 603 173 528T101 348Q101 245 173 170T345 95Q425 95 487 139T577 262H676Q646 142 556 69T345 -5Q202
-5 103 99Q3 206 3 348Z" />
<glyph unicode="d" glyph-name="d" horiz-adv-x="651" d="M118 101H268Q383 101 447 174T512 349T448 524T268 598H118V101ZM17 699H268Q351 699 418 669T526 590T590 478T612 349T590 221T527 109T418 30T268 0H17V699Z" />
<glyph unicode="e" glyph-name="e" horiz-adv-x="468" d="M114 299V101H439V0H12V699H438V598H114V401H431V299H114Z" />
<glyph unicode="f" glyph-name="f" horiz-adv-x="449" d="M113 299V0H12V699H429V598H113V401H393V299H113Z" />
<glyph unicode="g" glyph-name="g" horiz-adv-x="725" d="M680 449H572Q553 527 488 565T347 603Q244 603 174 531T104 349T174 166T347 92Q417 92 477 127T567 234H308V335H685Q677 243 666 214V215Q631 118 539 57T347 -5Q199 -5 101 95T3 349T102 603T347 704Q400
704 451 690T549 647T632 567T680 449Z" />
<glyph unicode="h" glyph-name="h" horiz-adv-x="563" d="M116 699V404H412V699H514V0H412V304H116V0H15V699H116Z" />
<glyph unicode="i" glyph-name="i" horiz-adv-x="374" d="M345 699V599H215V101H345V0H-16V101H114V599H-16V699H345Z" />
<glyph unicode="j" glyph-name="j" horiz-adv-x="412" d="M370 699V303Q370 153 265 77T-10 0V95Q114 95 191 148T269 303V599H80V699H370Z" />
<glyph unicode="k" glyph-name="k" horiz-adv-x="525" d="M17 699H117V0H17V699ZM136 324V375L380 699H507L240 352L535 0H403L136 324Z" />
<glyph unicode="l" glyph-name="l" horiz-adv-x="478" d="M122 699V101H451V0H21V699H122Z" />
<glyph unicode="m" glyph-name="m" horiz-adv-x="707" d="M120 493V0H19V700H101L332 360L563 700H643V0H543V493L360 221H303L120 493Z" />
<glyph unicode="n" glyph-name="n" horiz-adv-x="588" d="M117 0H16V701L94 700L435 207V700H535V0H455L117 489V0Z" />
<glyph unicode="o" glyph-name="o" horiz-adv-x="758" d="M609 245T609 350T535 531Q459 607 354 607T175 531Q100 456 100 350T175 169Q249 93 354 93T535 169Q609 245 609 350ZM-2 204T-2 350T102 603Q206 709 354 709Q501 709 607 603Q711 496 711 350T607
97Q503 -9 354 -9T102 97Q-2 204 -2 350Z" />
<glyph unicode="p" glyph-name="p" horiz-adv-x="533" d="M14 700H270Q377 700 437 631T497 466T437 302T270 233H116V0H14V700ZM116 333H270Q330 333 363 372T397 465T364 558T270 598H116V333Z" />
<glyph unicode="q" glyph-name="q" horiz-adv-x="774" d="M616 350Q616 454 541 531Q467 607 361 607Q257 607 181 531Q106 454 106 350Q106 245 181 168Q246 103 334 92T503 129L309 302H449L568 194Q616 259 616 350ZM758 22V0H648L582 59Q465 -18 329 -7T109
97Q5 211 5 350Q5 496 109 603Q213 709 361 709Q508 709 614 603Q718 496 718 350Q718 230 642 131L758 22Z" />
<glyph unicode="r" glyph-name="r" horiz-adv-x="531" d="M154 307V355H272Q332 355 365 391T399 477Q399 526 366 562T272 598H117V0H17V700H272Q380 700 440 634T500 477Q500 399 453 339T319 263L540 0H409L154 307Z" />
<glyph unicode="s" glyph-name="s" horiz-adv-x="554" d="M498 523L398 519Q388 563 347 586T255 608Q168 606 128 555Q108 529 111 490Q112 469 123 454T147 430T184 415T224 407T270 402Q313 397 345 389T415 366T477 322T512 253Q517 228 517 207Q517 111 438
53T257 -6Q201 -6 147 14T52 79T5 183L4 202L106 204L107 189V193Q112 147 158 121T258 94Q319 94 367 125T415 208Q415 218 412 232Q408 251 394 264T356 284T311 294T258 301Q219 305 191 310T128 327T70 358T30 408T10 482V481Q4 556 48 614Q82 658 139 682T260
707Q349 707 417 660T498 523Z" />
<glyph unicode="t" glyph-name="t" horiz-adv-x="534" d="M293 -3H192V606H-20V700H504V606H293V-3Z" />
<glyph unicode="u" glyph-name="u" horiz-adv-x="589" d="M277 -7Q213 -7 156 16T58 91T18 210V699H120V209Q120 155 168 125T277 94Q337 94 385 125T433 210V699H535V209Q535 142 495 91T398 17T277 -7Z" />
<glyph unicode="v" glyph-name="v" horiz-adv-x="602" d="M277 176L487 699H595L314 -2H240L-41 699H69L277 176Z" />
<glyph unicode="w" glyph-name="w" horiz-adv-x="851" d="M520 -4L397 333Q380 285 338 170T276 -4H205L-30 699H75L242 194L357 521H438L552 195L720 699H826L591 -4H520Z" />
<glyph unicode="x" glyph-name="x" horiz-adv-x="601" d="M-42 699H82L272 437L463 699H586L333 348L586 0H463L272 262L82 0H-42L211 348L-42 699Z" />
<glyph unicode="y" glyph-name="y" horiz-adv-x="567" d="M-50 699H69L260 392L451 699H571L311 285V0H209V285L-50 699Z" />
<glyph unicode="z" glyph-name="z" horiz-adv-x="533" d="M1 607V699H475L509 635L113 90H503V0H12L-29 56L375 607H1Z" />
</font>
</defs>
</svg>
