<?xml version="1.0" standalone="no"?>
<!DOCTYPE svg PUBLIC "-//W3C//DTD SVG 1.1//EN" "http://www.w3.org/Graphics/SVG/1.1/DTD/svg11.dtd" >
<svg xmlns="http://www.w3.org/2000/svg">
<metadata></metadata>
<defs>
<font id="sredaregular" horiz-adv-x="1812" >
<font-face units-per-em="2048" ascent="1536" descent="-512" />
<missing-glyph horiz-adv-x="542" />
<glyph horiz-adv-x="2048" />
<glyph horiz-adv-x="2048" />
<glyph unicode="&#xd;" horiz-adv-x="2048" />
<glyph unicode=" "  horiz-adv-x="542" />
<glyph unicode="&#x09;" horiz-adv-x="542" />
<glyph unicode="&#xa0;" horiz-adv-x="542" />
<glyph unicode="!" horiz-adv-x="614" d="M123 125q0 78 53 118t131 40t132.5 -40t54.5 -118q0 -76 -54.5 -116t-132.5 -40t-131 40t-53 116zM170 1501l258 23l14 -13l-45 -1103h-182z" />
<glyph unicode="&#x22;" horiz-adv-x="692" d="M106 1300h213v-428h-153zM393 872v428h213l-67 -428h-146z" />
<glyph unicode="#" horiz-adv-x="929" d="M51 494l12 6l170 -6l11 141h-185l-8 141l12 6l193 -8l16 191l144 -7l4 -14l-27 -170h146l16 180l141 -6l4 -14l-24 -160h194v-139h-208l-9 -143h217v-142h-227l-12 -196l-139 14l14 182h-144l-12 -186l-141 16l12 170h-162zM371 492h145l12 143h-147z" />
<glyph unicode="$" horiz-adv-x="1484" d="M66 113l22 356l131 -2l45 -197q92 -66 201.5 -105.5t269.5 -39.5q86 0 164 8t135.5 30.5t91 61.5t33.5 103q0 76 -48 118.5t-140 55.5l-492 67q-82 12 -151.5 37t-121.5 66t-82 98t-30 135q0 100 41 172t114 119t175 71.5t225 30.5l17 189h163v-191q162 -10 297.5 -44.5 t229.5 -82.5l-21 -362l-125 -6l-57 209q-80 53 -193.5 84.5t-250.5 31.5q-180 0 -264.5 -43t-84.5 -135q0 -59 40 -97t112 -48l473 -66q98 -14 181 -39.5t141.5 -67.5t91.5 -103.5t33 -143.5q0 -117 -52.5 -197t-140.5 -130t-200.5 -74.5t-231.5 -30.5l-19 -207h-163v209 q-143 8 -280.5 43t-278.5 117z" />
<glyph unicode="%" horiz-adv-x="1751" d="M51 887q0 76 26.5 138t76 106.5t118 68t152.5 23.5t152.5 -23.5t117.5 -68t76 -106.5t27 -138q0 -78 -27 -139.5t-76 -105.5t-117.5 -67.5t-152.5 -23.5t-152.5 23.5t-118 67.5t-76 105.5t-26.5 139.5zM240 887q0 -98 44 -146.5t140 -48.5t140 48t44 147q0 98 -44 146 t-140 48t-140 -48t-44 -146zM428 33l768 1206l135 -72l-766 -1206zM958 303q0 76 27 138.5t76 106.5t117.5 67.5t152.5 23.5t152.5 -23.5t118 -67.5t76 -106.5t26.5 -138.5q0 -78 -26.5 -139.5t-76 -105.5t-118 -67.5t-152.5 -23.5t-152.5 23.5t-117.5 67.5t-76 105.5 t-27 139.5zM1147 303q0 -98 44 -146t140 -48t140.5 48t44.5 146t-44.5 146.5t-140.5 48.5t-140 -48.5t-44 -146.5z" />
<glyph unicode="&#x26;" d="M113 418q0 133 67.5 222t186.5 155q-90 80 -91 194q0 98 47.5 158.5t118 94.5t154.5 46t158 12q166 0 297 -23.5t254 -82.5l-41 -334h-129l-52 221q-66 31 -150.5 43.5t-158.5 12.5q-41 0 -83 -5.5t-76.5 -20.5t-57 -43t-22.5 -73q0 -35 20 -65.5t51 -52.5l604 -474 q14 35 23.5 83.5t9.5 115.5l-158 37v121h525v-121l-140 -35q0 -106 -21.5 -183t-59.5 -140l114 -91q57 -45 96 -53t76 -8q33 0 60 8l43 -98q-47 -39 -98.5 -52.5t-116.5 -13.5q-31 0 -65 6.5t-66.5 16.5t-61.5 23.5t-47 29.5l-76 60q-201 -160 -489 -160q-119 0 -234.5 24.5 t-207 80t-147.5 145.5t-56 219zM362 440q0 -160 102.5 -241.5t283.5 -81.5q90 0 176 25.5t151 95.5l-596 471q-66 -47 -91.5 -119t-25.5 -150z" />
<glyph unicode="'" horiz-adv-x="450" d="M115 870v428h213l-68 -428h-145z" />
<glyph unicode="(" horiz-adv-x="608" d="M49 618q0 123 31 235t87 205t136 165.5t176 122.5l84 -107q-129 -88 -208 -237.5t-79 -383.5q0 -233 79 -382.5t208 -237.5l-84 -107q-96 49 -176 122t-136 166t-87 204.5t-31 234.5z" />
<glyph unicode=")" horiz-adv-x="608" d="M49 -2q129 88 208 237.5t79 382.5t-79 383t-208 238l84 107q96 -49 176 -122t136.5 -166t87 -205t30.5 -235t-30.5 -234.5t-87 -204.5t-136.5 -165.5t-176 -122.5z" />
<glyph unicode="*" horiz-adv-x="776" d="M72 1004l198 43l-133 141l21 67l121 45l98 -176l98 174h74l74 -104l-131 -147l184 -41l22 -66l-67 -104l-189 88l29 -197l-61 -43l-121 33l20 201l-174 -82l-61 45z" />
<glyph unicode="+" horiz-adv-x="886" d="M72 551v176l276 -6v260h201l-6 -264l284 -6l-10 -160h-278l-7 -285l-184 10v275h-276z" />
<glyph unicode="," horiz-adv-x="616" d="M106 127q0 78 54.5 117t130.5 39q78 0 132 -39t54 -117q0 -84 -44 -183.5t-130 -209.5l-104 30l53 209q-72 8 -109 42t-37 112z" />
<glyph unicode="-" horiz-adv-x="858" d="M72 465v180l714 -16l-10 -164h-704z" />
<glyph unicode="." horiz-adv-x="585" d="M106 125q0 78 53.5 118t131.5 40t132 -40t54 -118q0 -76 -54 -116t-132 -40t-131.5 40t-53.5 116z" />
<glyph unicode="/" horiz-adv-x="745" d="M35 -55l485 1380l178 -41l-487 -1393z" />
<glyph unicode="0" horiz-adv-x="1503" d="M61 625q0 150 49.5 274.5t140.5 213.5t218 138t283 49t282.5 -49t216.5 -138t140.5 -214t50.5 -274q0 -152 -50.5 -276t-140.5 -213t-217 -138t-282 -49q-156 0 -283 49t-218 138t-140.5 213t-49.5 276zM315 625q0 -510 437 -510q436 0 436 510t-436 510t-437 -510z" />
<glyph unicode="1" horiz-adv-x="829" d="M74 1032q121 18 210 75.5t160 149.5l136 -20v-1069l178 -43v-125h-649v125l221 43v766q-55 -14 -107.5 -20.5t-130.5 -6.5z" />
<glyph unicode="2" horiz-adv-x="1404" d="M70 158l761 501q49 33 86 62t62 59.5t36 65.5t11 80q0 100 -100.5 143t-261.5 43q-109 0 -190 -25.5t-140 -72.5l-55 -256h-150l-23 387q98 59 246 107t326 48q299 0 449.5 -103t150.5 -292q0 -63 -17.5 -113.5t-49 -93.5t-78 -78.5t-103.5 -70.5l-584 -352l5 -15l655 33 l59 201l148 -17l-37 -399h-1186z" />
<glyph unicode="3" horiz-adv-x="1439" d="M96 111l17 356l145 6l49 -231q86 -55 194.5 -88t229.5 -33q86 0 158 14.5t124 46t80.5 83.5t28.5 130q0 104 -69.5 156.5t-192.5 52.5h-463l-18 119l510 315l-4 11h-535l-55 -201l-145 20l43 381l18 17l242 -17h829l21 -168l-580 -315v-8q96 10 138 11t63 1 q72 0 150.5 -20.5t145 -64.5t109.5 -113.5t43 -165.5q0 -141 -60.5 -229.5t-155.5 -139.5t-213 -69.5t-230 -18.5q-168 0 -315.5 33.5t-301.5 128.5z" />
<glyph unicode="4" horiz-adv-x="1511" d="M61 387l932 883l195 -35v-784h221l8 -127l-229 -48v-112l180 -39v-125h-655v125l221 39v119h-848zM395 451h539v106l27 459l-11 2z" />
<glyph unicode="5" horiz-adv-x="1431" d="M80 111l18 354h158l39 -207q178 -135 422 -135q70 0 139.5 13.5t124.5 45t90 82.5t35 127q0 61 -16.5 110.5t-59.5 84.5t-115.5 54t-183.5 19q-98 0 -207.5 -13t-226.5 -48l-147 53l63 598l18 15l232 -15h510l254 17l18 -17l27 -342l-166 -18l-41 162h-662l-36 -273 q51 16 100 28.5t98 20t102.5 10.5t112.5 3q100 0 203.5 -21.5t186.5 -73t135.5 -135.5t52.5 -207q0 -125 -54.5 -212t-144.5 -140t-204.5 -77.5t-235.5 -24.5q-170 0 -331 37t-308 125z" />
<glyph unicode="6" horiz-adv-x="1525" d="M61 635q0 170 56.5 296t154 208t225.5 121.5t271 39.5q166 0 297 -21.5t248 -68.5l-15 -344l-127 -8l-57 195q-84 47 -169 67.5t-177 20.5q-96 0 -175 -19.5t-136.5 -65.5t-93 -121t-44.5 -185q90 41 201 66.5t264 25.5q121 0 229.5 -21.5t190.5 -71t130 -127t48 -188.5 q0 -135 -54 -228t-143 -149.5t-203 -82t-234 -25.5q-152 0 -278 43t-216 128t-141.5 214t-51.5 301zM307 590q6 -127 36 -216t85 -145.5t135 -82t185 -25.5q201 0 294 73.5t93 227.5q0 125 -95.5 182.5t-302.5 57.5q-135 0 -235.5 -16.5t-194.5 -55.5z" />
<glyph unicode="7" horiz-adv-x="1415" d="M96 834l21 415l22 15l262 -15h699l235 13l19 -13l14 -123q-137 -111 -238.5 -229.5t-179.5 -255.5q-66 -117 -115 -246t-85 -276v-119h-299q45 193 121.5 369t181.5 336q59 92 127.5 175t158.5 160v9h-716l-103 -234z" />
<glyph unicode="8" horiz-adv-x="1482" d="M72 362q0 127 73.5 209t194.5 121v13q-90 35 -128 99t-38 154q0 74 39 136.5t111.5 108.5t178 71.5t240.5 25.5q301 0 436.5 -90t135.5 -252q0 -84 -46 -147t-136 -86v-12q135 -29 206.5 -108t71.5 -214q0 -129 -63.5 -215t-162 -136t-216 -70.5t-226.5 -20.5 q-92 0 -208.5 16.5t-219 61.5t-173 125.5t-70.5 209.5zM326 371q0 -80 43 -129t106.5 -76t136 -36t131.5 -9q57 0 129 8t136.5 32.5t108.5 69.5t44 119q0 166 -166 191l-493 73q-92 -31 -134 -91t-42 -152zM420 967q0 -53 30.5 -94.5t88.5 -49.5l405 -57q70 23 97.5 76 t27.5 112q0 47 -16.5 80t-55.5 52.5t-100 28.5t-154 9q-168 0 -245.5 -35.5t-77.5 -121.5z" />
<glyph unicode="9" horiz-adv-x="1505" d="M123 827q0 135 55 226.5t145.5 145.5t205 77.5t235.5 23.5q150 0 275.5 -39.5t214.5 -120.5t139.5 -207t50.5 -298q0 -170 -57.5 -299t-153.5 -215t-224 -129t-272 -43q-166 0 -297 21.5t-247 68.5l-15 323l127 9l86 -174q84 -47 169 -67.5t177 -20.5q193 0 311.5 92 t137.5 299q-90 -41 -201 -66.5t-264 -25.5q-121 0 -229.5 23.5t-190.5 74.5t-130 131t-48 190zM371 834q0 -125 95 -185.5t302 -60.5q135 0 235.5 16t194.5 55q-10 254 -117.5 361.5t-316.5 107.5q-201 0 -297 -70.5t-96 -223.5z" />
<glyph unicode=":" horiz-adv-x="573" d="M113 123q0 76 53 114.5t129 38.5t129 -38.5t53 -114.5t-53 -115t-129 -39t-129 39t-53 115zM113 766q0 76 53 115t129 39t129 -39t53 -115t-53 -115t-129 -39t-129 39t-53 115z" />
<glyph unicode=";" horiz-adv-x="573" d="M111 119q0 78 54 117.5t130 39.5q78 0 131 -39.5t53 -117.5q0 -80 -44 -178.5t-128 -208.5l-102 30l51 209q-72 8 -108.5 41t-36.5 107zM113 766q0 76 53 115t129 39t129 -39t53 -115t-53 -115t-129 -39t-129 39t-53 115z" />
<glyph unicode="&#x3c;" horiz-adv-x="653" d="M80 324l254 286l-254 291l102 94l410 -342v-65l-410 -359z" />
<glyph unicode="=" horiz-adv-x="858" d="M72 362v181l714 -17l-10 -164h-704zM72 668v180l714 -17l-10 -163h-704z" />
<glyph unicode="&#x3e;" horiz-adv-x="653" d="M80 571v66l409 358l103 -94l-254 -287l254 -290l-103 -95z" />
<glyph unicode="?" horiz-adv-x="1536" d="M63 1274q117 74 277 117t405 43q147 0 277.5 -22.5t227 -71t151.5 -122t55 -178.5q0 -154 -100.5 -258t-296.5 -141l-322 -63v-183h-135l-147 250l18 57q53 33 124 52.5t169 40.5l278 57q80 16 112 69.5t32 118.5q0 51 -33 89t-91 64t-139 38t-180 12q-55 0 -115.5 -5 t-115.5 -15.5t-102 -23.5t-78 -30l-41 -274h-160zM469 125q0 78 53 118t131 40t132.5 -40t54.5 -118q0 -76 -54.5 -116t-132.5 -40t-131 40t-53 116z" />
<glyph unicode="@" horiz-adv-x="1654" d="M61 512q0 156 62.5 281t169 213t248 135t297.5 47q166 0 305 -47t239.5 -132t155.5 -203t55 -261q0 -80 -20.5 -149.5t-62.5 -123t-104.5 -84t-145.5 -30.5q-78 0 -135.5 28.5t-84.5 67.5q-49 -53 -123.5 -80t-134.5 -27q-72 0 -138 20.5t-117.5 63.5t-81 109t-29.5 156 q0 78 30.5 143.5t82 113.5t120 74.5t144.5 26.5q125 0 217 -72l116 52l56 -31v-406q0 -53 22.5 -75.5t69.5 -22.5q70 0 93.5 69.5t23.5 184.5t-43 203t-117 147.5t-175.5 90t-217.5 30.5q-123 0 -228.5 -36t-182.5 -102.5t-120 -160.5t-43 -213q0 -127 42 -222t118 -159.5 t180.5 -97.5t229.5 -33q102 0 187 16.5t177 59.5l68 -125q-104 -59 -207 -87t-225 -28q-180 0 -323.5 47t-243 135t-153 213t-53.5 281zM616 496q0 -104 50.5 -151.5t146.5 -47.5q53 0 96 18.5t72 59.5l4 282q-29 29 -77 39.5t-95 10.5q-96 0 -146.5 -51.5t-50.5 -159.5z " />
<glyph unicode="A" d="M31 125l205 43l438 801l112 248l242 69h12l551 -1122l187 -39l-11 -125h-641l-10 125l191 41l-88 184h-670l-92 -184l192 -41l-10 -125h-598zM631 518h510l-234 514h-20z" />
<glyph unicode="B" horiz-adv-x="1607" d="M51 29l10 125l203 16v917l-203 17l-10 131q119 14 219.5 24.5t192.5 17.5t180 10t180 3q119 0 225.5 -14t187.5 -52t128 -103.5t47 -166.5q0 -100 -59.5 -170.5t-163.5 -87.5v-8q164 -25 246 -107.5t82 -207.5q0 -117 -57.5 -196t-148.5 -125t-205 -65.5t-226 -19.5 q-139 0 -247 4t-202 12.5t-184 19.5t-195 26zM512 168q92 -16 168 -22.5t151 -6.5q80 0 157 9.5t138.5 35t99.5 71.5t38 122q0 59 -26 99t-69 64.5t-101 36t-124 11.5h-432v-420zM512 762h422q104 0 165.5 37t61.5 131q0 55 -25.5 92t-71.5 59.5t-111.5 31.5t-147.5 9 q-72 0 -142.5 -5t-150.5 -19v-336z" />
<glyph unicode="C" horiz-adv-x="1492" d="M61 625q0 143 52.5 266t150.5 214t239.5 143t319.5 52q154 0 297.5 -25.5t278.5 -84.5l-21 -391l-164 10l-32 229q-68 51 -157 75t-181 24q-117 0 -213 -34t-167 -99.5t-110 -160.5t-39 -218t39 -218.5t110 -161t167 -99t213 -33.5q92 0 181 23.5t157 74.5l32 246h164 l21 -389q-135 -63 -278.5 -91t-297.5 -28q-178 0 -319.5 52t-239.5 143.5t-150.5 214t-52.5 266.5z" />
<glyph unicode="D" horiz-adv-x="1669" d="M59 25l11 129l200 16v915l-200 19l-11 129q92 12 179.5 20.5t180.5 13.5t198.5 8t232.5 3q168 0 307 -40t239.5 -120t156 -201.5t55.5 -283.5q0 -164 -55.5 -286t-156 -204t-239.5 -122.5t-307 -40.5q-127 0 -232.5 3t-198.5 8t-180 13t-180 21zM520 172 q76 -14 153 -20.5t175 -6.5q117 0 210 28t158.5 87t101.5 151.5t36 221.5t-36 220t-101.5 148.5t-158.5 84t-210 26.5q-98 0 -175 -6t-153 -21v-913z" />
<glyph unicode="E" horiz-adv-x="1513" d="M61 125l201 43v913l-201 43l11 125h946l358 13l15 -9l-27 -417l-162 8l-18 231h-672v-319h377l63 149l127 -10v-494l-133 -10l-57 193h-377v-410h676l82 289l164 -14l-41 -449h-1321z" />
<glyph unicode="F" horiz-adv-x="1449" d="M72 125l200 43v913l-200 43l10 125h936l346 13l16 -9l-24 -424l-162 7l-20 239h-652v-360h377l74 170l119 -6v-523l-125 -6l-68 193h-377v-375l201 -43v-125h-641z" />
<glyph unicode="G" horiz-adv-x="1617" d="M61 625q0 143 52.5 266t150.5 214t239.5 143t319.5 52q154 0 307.5 -25.5t288.5 -84.5l-28 -371l-164 8l-25 211q-74 51 -170 75t-188 24q-117 0 -213 -34t-167 -99.5t-110 -160.5t-39 -218t36 -218.5t102.5 -160t160 -98t209.5 -33.5q197 0 348 104v305l-233 43l10 121 h600l8 -121l-135 -35v-534l-47 -23l-166 82q-90 -55 -195.5 -81.5t-215.5 -26.5q-176 0 -313.5 52t-230.5 143.5t-142.5 214t-49.5 266.5z" />
<glyph unicode="H" horiz-adv-x="1789" d="M72 125l200 43v913l-200 43l10 125h631l10 -125l-201 -43v-358h746v358l-201 43l10 125h631l10 -125l-200 -43v-913l200 -43l-10 -125h-631l-10 125l201 43v381h-746v-381l201 -43l-10 -125h-631z" />
<glyph unicode="I" horiz-adv-x="778" d="M61 125l201 45v911l-201 43l11 125h635l10 -125l-203 -43v-911l203 -45l-10 -125h-635z" />
<glyph unicode="J" horiz-adv-x="1323" d="M55 25l15 389l153 8l60 -262q41 -18 87 -29.5t97 -11.5q160 0 248 82q111 102 110 336v544l-217 43l10 125h623l10 -125l-176 -43v-510q0 -162 -42 -285.5t-134 -205.5q-72 -63 -173 -97t-239 -34q-117 0 -219 17.5t-213 58.5z" />
<glyph unicode="K" horiz-adv-x="1767" d="M72 125l198 43v913l-198 43l10 125h631l10 -125l-201 -43v-358l281 41l344 326l-143 18l10 141h616l10 -129l-198 -30l-455 -394l516 -526l193 -45l-10 -125h-658l-10 125l162 27l-385 430l-273 -13v-401l201 -43l-10 -125h-631z" />
<glyph unicode="L" horiz-adv-x="1488" d="M55 125l203 43v913l-203 43l11 125h632l11 -125l-199 -43v-909h670l98 299l154 -14l-27 -457h-1339z" />
<glyph unicode="M" horiz-adv-x="2148" d="M51 125l191 41v917l-191 41l10 125h572l438 -848h19l430 848h569l10 -125l-201 -43v-913l201 -43l-10 -125h-641l-10 125l215 43v889h-27l-520 -1037l-115 -18l-545 1059h-28l22 -459v-436l183 -41l-11 -125h-551z" />
<glyph unicode="N" horiz-adv-x="1759" d="M53 125l191 41v917l-191 43l10 123h517l739 -905h18v739l-221 43l10 123h570l10 -123l-160 -43v-1048l-219 -64l-883 1053h-14l27 -438v-420l213 -41l-11 -125h-596z" />
<glyph unicode="O" horiz-adv-x="1626" d="M61 625q0 150 53.5 274.5t152 213.5t237.5 138t309 49t309.5 -49t237.5 -138t151.5 -214t53.5 -274q0 -152 -53.5 -276t-151.5 -213t-237.5 -138t-309.5 -49t-309 49t-237.5 138t-152 213t-53.5 276zM315 625q0 -242 132.5 -374t365.5 -132t365.5 132t132.5 374 t-132.5 373.5t-365.5 131.5t-365.5 -132t-132.5 -373z" />
<glyph unicode="P" horiz-adv-x="1626" d="M61 123l211 47v907l-200 19l-11 127q203 31 386.5 47t377.5 16q131 0 255 -16.5t220.5 -62.5t154.5 -131t58 -220q0 -106 -40.5 -189t-116.5 -141.5t-180.5 -89t-231.5 -30.5q-59 0 -111.5 2t-102.5 7t-100 13t-106 18v-278l199 -45l-10 -123h-641zM524 612 q86 -16 169 -23t188 -7q88 0 158.5 16t120.5 50t77 88.5t27 129.5q0 82 -38 131.5t-98.5 76t-134 35.5t-147.5 9q-147 0 -322 -31v-475z" />
<glyph unicode="Q" horiz-adv-x="1650" d="M61 625q0 150 50.5 274.5t147.5 213.5t236.5 138t317.5 49t317.5 -49t236.5 -138t147.5 -214t50.5 -274q0 -90 -18.5 -176.5t-57.5 -162t-97.5 -138t-140.5 -105.5q23 -33 49.5 -46t63.5 -13q43 0 74.5 21.5t42.5 60.5l108 -35q-20 -111 -91 -180.5t-200 -69.5 q-113 0 -181 44t-128 136q-84 -12 -176 -12q-178 0 -317.5 49t-236.5 138t-147.5 213t-50.5 276zM315 625q0 -195 86 -320q66 59 148 92t194 33q135 0 226.5 -53t167.5 -164q84 66 129 168t45 244q0 121 -34 216t-98.5 161.5t-156.5 102.5t-209 36t-209 -36t-156.5 -102.5 t-98.5 -162t-34 -215.5zM518 193q59 -39 133 -60.5t162 -21.5q20 0 39.5 2t40.5 6q-29 55 -76 96t-125 41q-49 0 -94 -17t-80 -46z" />
<glyph unicode="R" horiz-adv-x="1769" d="M57 123l211 47v907l-200 19l-11 127q203 31 386.5 47t377.5 16q137 0 264 -18.5t222.5 -65.5t153 -129t57.5 -211q0 -164 -98.5 -249t-262.5 -117v-15q82 -20 123 -75l147 -207q18 -27 45 -37t52 -10q78 0 112 67l101 -57q-31 -104 -112 -153.5t-185 -49.5 q-76 0 -145.5 38t-112.5 109l-158 256q-23 33 -58.5 53.5t-95.5 20.5q-51 0 -94 2t-85 6.5t-83 11.5t-88 19v-307l199 -45l-10 -123h-641zM520 633q86 -16 169 -23.5t188 -7.5q88 0 158.5 12.5t120.5 43t77 82t27 126.5q0 82 -38 131.5t-98.5 76t-134.5 35.5t-147 9 q-147 0 -322 -31v-454z" />
<glyph unicode="S" horiz-adv-x="1470" d="M61 113l23 356l131 -2l45 -197q92 -66 201.5 -105.5t269.5 -39.5q86 0 161 8t129 30.5t85 61.5t31 103q0 76 -49.5 120t-141.5 56l-471 67q-82 12 -151.5 37t-121.5 65t-82 97t-30 135q0 109 47 183.5t132 121.5t201 68.5t255 21.5q195 0 346.5 -38.5t259.5 -92.5 l-20 -362l-125 -6l-58 209q-80 53 -183 84.5t-240 31.5q-180 0 -265.5 -43t-85.5 -135q0 -59 41 -95t113 -46l453 -66q98 -14 181 -40.5t141 -69.5t91 -104.5t33 -143.5q0 -129 -59.5 -213t-156.5 -133t-222 -68.5t-256 -19.5q-168 0 -328 34.5t-324 129.5z" />
<glyph unicode="T" horiz-adv-x="1574" d="M53 791l23 469l24 6l267 -17h763l345 17l24 -6l23 -469l-144 -19l-80 311l-387 -8v-905l201 -45l-14 -125h-621l-14 125l203 45v905l-390 8l-77 -311z" />
<glyph unicode="U" horiz-adv-x="1789" d="M78 1124l10 125h631l10 -125l-199 -43v-581q0 -98 33 -170t89.5 -118t133 -67.5t164.5 -21.5q84 0 154 24.5t121 75.5t78.5 128t27.5 181v553l-192 39l10 125h559l10 -125l-174 -39v-532q0 -152 -50 -265.5t-134 -189t-196.5 -112.5t-235.5 -37q-141 0 -260 37 t-205 111.5t-135 187t-49 264.5v532z" />
<glyph unicode="V" horiz-adv-x="1835" d="M45 1124l16 125h635l11 -125l-193 -39l444 -862h23l385 860l-192 41l10 125h598l10 -125l-203 -41l-520 -1048l-244 -74h-8l-588 1126z" />
<glyph unicode="W" horiz-adv-x="2658" d="M43 1124l10 125h641l11 -125l-191 -41l369 -841h14l301 845l-186 37l10 125h641l10 -125l-176 -43l291 -839h14l379 841l-190 41l10 125h600l10 -125l-203 -41l-518 -1050l-248 -72h-8l-317 883l-303 -811l-252 -72h-8l-527 1126z" />
<glyph unicode="X" horiz-adv-x="1777" d="M53 125l203 45l442 496l-381 415l-213 43l11 125h678l10 -125l-168 -41l278 -301h25l272 308l-157 34l10 125h592l10 -125l-197 -43l-393 -417l453 -500l180 -39l-10 -125h-654l-10 125l168 39l-346 383h-20l-318 -377l232 -45l-11 -125h-676z" />
<glyph unicode="Y" horiz-adv-x="1796" d="M51 1124l10 125h676l11 -125l-179 -37l375 -520h19l352 510l-223 47l10 125h633l10 -125l-201 -43l-495 -686v-227l200 -43l-10 -125h-631l-10 125l201 43v231l-557 686z" />
<glyph unicode="Z" horiz-adv-x="1400" d="M45 139l926 928l-6 12l-275 -6h-303l-201 -309l-114 37l114 465h25l305 -17h428l356 13h19l20 -115l-931 -954l8 -17l311 8l360 -8l160 264l117 -22l-72 -418h-870l-340 -12h-16z" />
<glyph unicode="[" horiz-adv-x="677" d="M139 -174v1630h402v-147h-189v-1338h189v-145h-402z" />
<glyph unicode="\" horiz-adv-x="745" d="M35 1284l178 41l485 -1380l-176 -54z" />
<glyph unicode="]" horiz-adv-x="677" d="M139 -29h189v1338h-189v147h402v-1630h-402v145z" />
<glyph unicode="^" horiz-adv-x="929" d="M109 985l337 328h33l328 -332l-74 -88l-276 170l-279 -170z" />
<glyph unicode="_" horiz-adv-x="1118" d="M61 -297l23 176h956l15 -158l-957 -26z" />
<glyph unicode="`" horiz-adv-x="409" d="M25 1446l176 102l178 -334l-127 -77z" />
<glyph unicode="a" horiz-adv-x="1423" d="M74 303q0 74 31.5 132.5t89 100.5t137.5 68.5t178 40.5q111 16 214 20.5t226 4.5v69q0 68 -68.5 112t-230.5 44q-92 0 -193.5 -21.5t-215.5 -72.5l-58 153q117 59 240 85t264 26q133 0 230.5 -26.5t160 -76t92 -118t29.5 -150.5v-485q0 -33 15.5 -53.5t48.5 -20.5h92 l10 -135q-43 -14 -79 -20.5t-77 -6.5q-90 0 -136 35t-62 98q-84 -72 -201 -109.5t-258 -37.5q-90 0 -176 15.5t-153.5 55.5t-108.5 105.5t-41 167.5zM330 305q0 -74 59.5 -124t190.5 -50q213 0 370 88v305q-119 0 -221 -6t-190 -20q-111 -16 -160 -61.5t-49 -131.5z" />
<glyph unicode="b" horiz-adv-x="1363" d="M-47 1337l381 25l18 -12v-344q74 29 165 44t183 15q147 0 261 -40t191 -112.5t117 -173t40 -221.5q0 -115 -41 -216t-123 -178t-204 -121t-282 -44t-295 9t-270 34l-4 10l16 271v911l-141 18zM352 186q68 -31 137.5 -43t169.5 -12t175 32t124.5 85t74 122.5t24.5 147.5 q0 172 -95.5 273.5t-267.5 101.5q-98 0 -181 -13.5t-161 -41.5v-652z" />
<glyph unicode="c" horiz-adv-x="1277" d="M55 512q0 115 44 216t128 176t205 118t273 43q156 0 279.5 -28.5t215.5 -75.5l-29 -412h-149l-39 295q-66 29 -132.5 43t-145.5 14q-96 0 -170 -28.5t-125.5 -80t-78 -123t-26.5 -157.5t23.5 -156.5t70.5 -123t118 -81t167 -28.5q72 0 128 7t104.5 22.5t93.5 39t94 58.5 l88 -148q-111 -78 -237 -110.5t-271 -32.5q-147 0 -264 43t-198 119t-124 176t-43 215z" />
<glyph unicode="d" horiz-adv-x="1449" d="M55 512q0 121 44 222.5t128 175t204 114.5t274 41q94 0 169.5 -16.5t137.5 -44.5v188l-144 20l-12 125l387 25l17 -10v-1182l145 -45v-125h-250l-65 104q-88 -78 -199 -111.5t-246 -33.5q-137 0 -245.5 40t-185.5 113.5t-118 175t-41 224.5zM307 512q0 -102 27.5 -174 t75 -118t113 -67.5t141.5 -21.5q117 0 207 32t141 85v598q-82 29 -154 38t-153 9q-182 0 -290 -90t-108 -291z" />
<glyph unicode="e" horiz-adv-x="1337" d="M55 512q0 115 43 216t125 176t201 118t270 43q137 0 247 -38t185.5 -107.5t115.5 -171t40 -226.5q0 -23 -2 -46t-8 -46l-12 -12h-527l-424 22q16 -156 110.5 -236.5t260.5 -80.5q72 0 128 6t104.5 19.5t93.5 37t94 58.5l88 -148q-111 -78 -229.5 -107.5t-278.5 -29.5 q-150 0 -266.5 43t-196.5 119t-121 176t-41 215zM309 588h723q-8 168 -99 240.5t-239 72.5q-170 0 -266 -80t-119 -233z" />
<glyph unicode="f" horiz-adv-x="1009" d="M51 127l150 18v709l-140 23l-10 147h150v33q0 117 47 210t158 148q57 29 140 45.5t181 16.5q135 0 197.5 -41t62.5 -115q0 -72 -34.5 -109.5t-94.5 -37.5q-74 0 -113.5 36.5t-48.5 100.5q-25 6 -57 6q-92 0 -141 -48t-52 -139v-106h394l12 -16l-18 -152l-388 6v-717 l150 -18l-10 -127h-525z" />
<glyph unicode="g" horiz-adv-x="1558" d="M39 98q35 47 89 92.5t124 92.5q-61 61 -92 139t-31 164q0 92 37 179t111.5 152.5t189.5 105.5t270 40q217 0 359 -80q20 39 55 70q29 6 59.5 8t65.5 2q68 0 132.5 -12.5t121.5 -28.5v-115l-184 -28q-31 10 -60 16t-61 6l-4 -20q55 -61 90 -137t35 -158q0 -92 -38 -179.5 t-113 -153t-189.5 -105t-268.5 -39.5q-123 0 -216 23.5t-163 66.5q-37 -29 -53 -65t-16 -71q0 -37 14 -76.5t55 -70.5q113 55 221.5 81t247.5 26q109 0 195 -14.5t159.5 -42t139 -72t131.5 -101.5l-86 -104q-123 68 -259 98.5t-280 30.5q-145 0 -285.5 -24.5t-269.5 -69.5 q-111 78 -168 177t-65 197zM379 586q0 -156 92 -231.5t266 -75.5q170 0 264.5 75.5t94.5 231.5q0 154 -94.5 230.5t-264.5 76.5q-174 0 -266 -77t-92 -230z" />
<glyph unicode="h" horiz-adv-x="1531" d="M43 1337l385 25l18 -12v-396q78 53 177.5 82t210.5 29q131 0 228 -35t161.5 -98.5t96.5 -149.5t32 -190v-447l145 -20l-10 -125h-520l-11 125l148 20v467q0 131 -70.5 207t-240.5 76q-111 0 -195 -28.5t-152 -88.5v-633l146 -20l-10 -125h-521l-10 125l146 20v1049 l-142 18z" />
<glyph unicode="i" horiz-adv-x="643" d="M51 125l148 20v732l-127 12l-11 123l371 20l17 -14v-873l145 -20l-8 -125h-525zM158 1290q0 61 49 100.5t115 39.5q68 0 116.5 -39t48.5 -101q0 -61 -49 -100t-116 -39q-66 0 -115 39t-49 100z" />
<glyph unicode="j" horiz-adv-x="548" d="M-199 -338l17 119l186 8q57 18 94 42t59.5 61.5t32 95t9.5 143.5v746l-127 12l-11 123l371 20l17 -14v-860q0 -262 -111 -400.5t-322 -138.5q-53 0 -105 10.5t-110 32.5zM150 1290q0 61 48.5 100.5t114.5 39.5q68 0 117 -39t49 -101q0 -61 -49 -100t-117 -39 q-66 0 -114.5 39t-48.5 100z" />
<glyph unicode="k" horiz-adv-x="1386" d="M43 1337l385 25l18 -12v-754l138 45l280 233l-108 27l10 123h504l10 -127l-158 -39l-362 -293l387 -391l174 -39l-12 -129l-314 -10l-422 459h-127v-310l146 -20l-10 -125h-521l-10 125l146 20v1049l-142 18z" />
<glyph unicode="l" horiz-adv-x="632" d="M43 1337l385 25l18 -12v-1205l146 -20l-10 -125h-521l-10 125l146 20v1049l-142 18z" />
<glyph unicode="m" horiz-adv-x="2250" d="M51 125l146 20v727l-136 9l-10 125l273 28l67 -123q82 76 176.5 115t223.5 39q139 0 233 -42t150 -114q80 72 179 114t220 42q127 0 219 -35t151.5 -98.5t88 -149.5t28.5 -190v-447l146 -20l-11 -125h-518l-10 125l148 20v467q0 133 -63.5 208t-219.5 75 q-178 0 -295 -109q29 -90 29 -194v-447l145 -20l-10 -125h-518l-11 125l148 20v467q0 66 -13.5 118t-44 89t-83 56.5t-129.5 19.5q-102 0 -171 -26.5t-135 -90.5v-633l146 -20l-10 -125h-519z" />
<glyph unicode="n" horiz-adv-x="1531" d="M51 125l146 20v727l-136 9l-10 125l289 28l53 -123q82 76 195.5 115t245.5 39q131 0 228 -35t161.5 -98.5t96.5 -149.5t32 -190v-447l145 -20l-10 -125h-520l-11 125l148 20v467q0 131 -70.5 207t-240.5 76q-111 0 -195 -28.5t-152 -88.5v-633l146 -20l-10 -125h-521z " />
<glyph unicode="o" horiz-adv-x="1409" d="M55 512q0 115 44 215t128 176t205 119t273 43t272.5 -43t204.5 -119t128 -176t44 -215t-44 -216t-128 -176t-205 -118t-272 -43q-152 0 -273 43t-205 118t-128 176t-44 216zM305 512q0 -180 99.5 -284.5t300.5 -104.5q199 0 298 104.5t99 284.5q0 178 -99 283.5 t-298 105.5q-201 0 -300.5 -105.5t-99.5 -283.5z" />
<glyph unicode="p" horiz-adv-x="1456" d="M49 -217l146 20v1069l-134 9l-10 125l273 28l55 -112q92 78 194.5 110.5t237.5 32.5q139 0 248.5 -40t185.5 -113.5t116 -175t40 -224.5q0 -115 -42 -216t-123 -176t-198.5 -118t-271.5 -43q-92 0 -173 17.5t-149 48.5v-222l146 -20l-10 -125h-521zM444 182 q78 -29 153 -40t155 -11q182 0 289.5 90t107.5 291q0 102 -27.5 174t-75 118t-113 67.5t-140.5 21.5q-119 0 -201 -28.5t-148 -88.5v-594z" />
<glyph unicode="q" horiz-adv-x="1368" d="M55 506q0 141 54.5 246.5t146.5 174t214 103.5t255 35q156 0 283 -10.5t262 -32.5l4 -10l-17 -271v-938l121 -20l-8 -125h-512l-8 125l162 20v222q-74 -31 -161 -48.5t-187 -17.5q-147 0 -261 40t-191 111.5t-117 173t-40 222.5zM307 510q0 -172 95.5 -273.5 t267.5 -101.5q102 0 183 14.5t159 43.5v669q-78 20 -145.5 27.5t-161.5 7.5q-100 0 -175 -31.5t-124.5 -85t-74 -123t-24.5 -147.5z" />
<glyph unicode="r" horiz-adv-x="1210" d="M51 125l146 20v727l-136 9l-10 125l273 28l69 -123q82 76 175.5 115t224.5 39q127 0 218 -28.5t163 -88.5l-33 -399h-150l-35 268q-33 37 -90 57.5t-121 20.5q-104 0 -169.5 -28.5t-129.5 -88.5v-633l146 -20l-10 -125h-521z" />
<glyph unicode="s" horiz-adv-x="1222" d="M70 59l10 308h141l31 -166q164 -76 360 -76q92 0 154.5 10t99.5 28.5t52.5 44t15.5 58.5q0 104 -143 125l-416 66q-141 23 -220 96.5t-79 191.5q0 92 41 154t112.5 98.5t169 52t207.5 15.5q145 0 265 -22.5t225 -63.5l-21 -330h-139l-29 185q-66 33 -139.5 49t-161.5 16 q-68 0 -124 -6t-98 -20.5t-65.5 -39t-23.5 -63.5q0 -35 20.5 -60.5t79.5 -35.5l432 -70q150 -25 244 -99.5t94 -211.5q0 -92 -39 -155.5t-110.5 -103.5t-174 -57.5t-229.5 -17.5q-154 0 -286.5 22.5t-255.5 77.5z" />
<glyph unicode="t" horiz-adv-x="980" d="M20 889l39 135h138v203l213 133l32 -10v-326h432l15 -12l-21 -166l-426 12v-457q0 -80 15.5 -132t47.5 -82.5t79 -43t110 -12.5q119 0 213 47l64 -123q-59 -49 -146.5 -72.5t-191.5 -23.5q-223 0 -329.5 112.5t-106.5 331.5v463l-162 11z" />
<glyph unicode="u" horiz-adv-x="1550" d="M59 899l11 125h520l10 -125l-147 -20v-461q0 -133 70.5 -211t240.5 -78q111 0 194.5 28.5t151.5 88.5v633l-145 20l10 125h520l10 -125l-145 -20v-717l145 -37l-10 -125h-283l-49 113q-82 -76 -195.5 -115t-244.5 -39t-228.5 36t-162 100.5t-96 151.5t-31.5 191v441z" />
<glyph unicode="v" horiz-adv-x="1515" d="M41 899l10 125h520l11 -125l-121 -16l334 -684h16l311 684l-133 16l8 125h469l9 -125l-132 -18l-450 -877l-217 -24l-504 901z" />
<glyph unicode="w" horiz-adv-x="2256" d="M41 899l10 125h520l11 -125l-121 -16l334 -684h16l240 573l-50 109l-131 18l11 125h520l10 -125l-121 -16l246 -684h16l312 684l-133 16l8 125h469l8 -125l-131 -18l-447 -877l-221 -24l-260 567l-250 -543l-231 -24l-504 901z" />
<glyph unicode="x" horiz-adv-x="1505" d="M51 123l129 20l412 392l-373 344l-143 20l10 125h539l10 -125l-100 -14l243 -242h8l230 238l-119 18l10 125h490l10 -125l-135 -22l-359 -347l404 -385l137 -22l-10 -123h-557l-10 123l116 20l-266 285h-8l-264 -285l125 -20l-11 -123h-508z" />
<glyph unicode="y" horiz-adv-x="1564" d="M41 897l8 127h600l10 -127l-165 -29l352 -657h22l303 657l-155 29l8 127h498l10 -127l-129 -29l-469 -950q-61 -127 -153.5 -189.5t-223.5 -62.5q-90 0 -152.5 26.5t-109.5 80.5l78 135q86 -41 153 -41q92 0 146.5 35t85.5 98l26 55l-141 37l-444 768z" />
<glyph unicode="z" horiz-adv-x="1167" d="M41 115l743 747l-2 6l-385 -8h-104l-86 -231l-141 22l43 381l24 2l281 -10h694l18 -86l-757 -780l2 -6l409 12h115l106 219l125 -18l-39 -365h-745l-276 -14l-9 6z" />
<glyph unicode="{" horiz-adv-x="632" d="M35 559v164q86 0 125 36t39 128v274q0 166 75.5 233.5t233.5 67.5h72v-153q-102 0 -135 -44t-33 -108v-315q0 -66 -27 -112t-88 -81v-16q61 -35 88 -81t27 -112v-315q0 -63 32.5 -107.5t135.5 -44.5v-153h-72q-158 0 -233.5 67.5t-75.5 233.5v274q0 92 -39 128t-125 36z " />
<glyph unicode="|" horiz-adv-x="339" d="M78 -129v1493h190v-1493h-190z" />
<glyph unicode="}" horiz-adv-x="632" d="M61 -27q102 0 135 44t33 108v315q0 66 27 112t88 81v16q-61 35 -88 81t-27 112v315q0 63 -32.5 107.5t-135.5 44.5v153h72q158 0 233.5 -67.5t75.5 -233.5v-274q0 -92 39 -128t125 -36v-164q-86 0 -125 -36t-39 -128v-274q0 -166 -75.5 -233.5t-233.5 -67.5h-72v153z" />
<glyph unicode="~" horiz-adv-x="876" d="M29 604q66 72 130 104.5t156 32.5q55 0 96.5 -13t77 -30.5t70.5 -31t76 -13.5q53 0 85 9.5t66 37.5l68 -92q-45 -59 -102.5 -86.5t-133.5 -27.5q-57 0 -99 12t-79 25.5t-73.5 25.5t-83.5 12q-84 0 -166 -69z" />
<glyph unicode="&#xa1;" horiz-adv-x="651" d="M161 1126q0 76 54.5 116t132.5 40t131 -40t53 -116q0 -78 -53 -118t-131 -40t-132.5 40t-54.5 118zM213 -260l45 1103h182l45 -1093l-258 -23z" />
<glyph unicode="&#xa2;" horiz-adv-x="1277" d="M55 512q0 106 38 200.5t110.5 168t176 121t236.5 59.5l17 186h164v-186q123 -8 224 -34t179 -66l-29 -412h-149l-39 295q-66 29 -132.5 43t-145.5 14q-96 0 -170 -28.5t-125.5 -80t-78 -123t-26.5 -157.5t23.5 -156.5t70.5 -123t118 -81t167 -28.5q72 0 128 7t104.5 22.5 t93.5 39t94 58.5l88 -148q-90 -63 -189.5 -95t-209.5 -42l-17 -198h-164v196q-133 10 -236.5 56.5t-174 120t-108.5 168.5t-38 204z" />
<glyph unicode="&#xa3;" horiz-adv-x="1460" d="M51 96q113 86 158 178.5t45 200.5v109h-164l-10 159l174 11v164q0 98 30.5 167.5t79 114.5t110 65.5t122.5 20.5q94 0 163.5 -22.5t123.5 -75.5l-82 -109q-23 25 -58.5 36t-66.5 11q-51 0 -86 -16t-55.5 -44t-29.5 -64.5t-9 -79.5v-177l319 17l12 -12l-14 -166h-317v-119 q0 -76 -9.5 -135.5t-31.5 -100.5q51 0 109.5 -8t121 -19.5t127 -19.5t129.5 -8q70 0 125 13.5t94 47t59.5 89t20.5 139.5l176 -6q0 -141 -26.5 -235.5t-81 -151t-135 -80t-189.5 -23.5q-84 0 -156.5 13.5t-140 31t-130 30.5t-122.5 13q-49 0 -88 -4t-75.5 -13t-72.5 -24.5 t-77 -38.5z" />
<glyph unicode="&#xa4;" horiz-adv-x="780" d="M16 403l86 84q-35 59 -34 131q0 78 43 144l-76 86l139 139l105 -108q25 6 53 10t59 4q61 0 117 -16l108 108l121 -115l-78 -94q55 -72 56 -158q0 -76 -41 -139l71 -84l-147 -131l-94 94q-25 -8 -53.5 -11t-59.5 -3q-37 0 -69.5 5t-61.5 16l-102 -103zM250 618 q0 -29 6 -55t22.5 -47.5t44 -34t68.5 -12.5q82 0 113 46t31 103t-31 103.5t-113 46.5q-41 0 -68.5 -12.5t-44 -34t-22.5 -48t-6 -55.5z" />
<glyph unicode="&#xa5;" horiz-adv-x="1796" d="M53 1124l10 125h676l11 -125l-179 -37l361 -481h18l367 471l-223 47l10 125h633l10 -125l-201 -43l-358 -454h110v-150h-811l-8 152l13 6l137 -4l-385 454zM479 406l13 6l806 -9v-141h-258v-94l201 -43l-10 -125h-651l-11 125l222 43v94h-304z" />
<glyph unicode="&#xa6;" horiz-adv-x="339" d="M78 -129v680h190v-680h-190zM78 686v678h190v-678h-190z" />
<glyph unicode="&#xa7;" horiz-adv-x="1234" d="M80 627q0 111 57.5 184.5t161.5 114.5q-139 78 -139 235q0 86 44 142.5t112.5 89t153.5 46t169 13.5q125 0 232.5 -17.5t215.5 -48.5l-24 -315l-131 -14l-60 186q-53 29 -113.5 42t-125.5 13q-111 0 -173.5 -22.5t-62.5 -97.5q0 -35 44 -68t120 -53l320 -84 q123 -33 201.5 -109t78.5 -186q0 -102 -47 -176t-145 -129q141 -78 141 -236q0 -86 -49 -146.5t-124 -98t-163 -55t-164 -17.5q-141 0 -246.5 15t-209.5 40l20 307l133 8l60 -176q53 -16 99 -21t112 -5q45 0 96 2t95 12t73.5 31.5t29.5 58.5q0 49 -35.5 88t-148.5 66 l-307 71q-145 33 -223 109t-78 201zM297 668q0 -53 39 -87t141 -59l342 -82q66 35 93.5 74t27.5 84q0 68 -40 106.5t-126 61.5l-342 92q-72 -37 -103.5 -81t-31.5 -109z" />
<glyph unicode="&#xa8;" horiz-adv-x="940" d="M82 1284q0 55 44 90t103 35t103.5 -35t44.5 -90t-44 -90t-104 -35q-59 0 -103 35t-44 90zM563 1284q0 55 44.5 90t103.5 35t103 -35t44 -90t-44 -90t-103 -35t-103.5 35t-44.5 90z" />
<glyph unicode="&#xa9;" horiz-adv-x="1693" d="M61 625q0 156 58.5 283.5t163 220t249 142.5t316.5 50t315.5 -50t248 -142.5t162.5 -220t58 -283.5t-58 -284t-162.5 -220t-248 -142.5t-315.5 -50.5t-316.5 50.5t-249 142.5t-163 220t-58.5 284zM274 625q0 -127 43 -226.5t120 -168t182.5 -104.5t228.5 -36t227.5 36 t181 104.5t120.5 168t44 226.5t-44 226t-120.5 167.5t-181 104.5t-227.5 36t-228.5 -36t-182.5 -104.5t-120 -167.5t-43 -226zM449 625q0 92 33.5 161.5t90 114.5t132 67.5t161.5 22.5q78 0 155 -17.5t146 -51.5l-28 -234h-105l-14 129q-31 18 -73 27.5t-81 9.5 q-98 0 -163.5 -56.5t-65.5 -172.5q0 -117 65.5 -173.5t163.5 -56.5q39 0 81 9.5t73 27.5l33 129h104l10 -229q-70 -37 -146.5 -55.5t-154.5 -18.5q-86 0 -161.5 22.5t-132 67.5t-90 114.5t-33.5 162.5z" />
<glyph unicode="&#xab;" horiz-adv-x="929" d="M53 489v58l357 336l106 -76l-203 -279l203 -299l-106 -75zM414 489v58l356 336l107 -76l-203 -279l203 -299l-107 -75z" />
<glyph unicode="&#xac;" horiz-adv-x="956" d="M49 625v174h844v-410h-162l-31 236h-651z" />
<glyph unicode="&#xad;" horiz-adv-x="858" d="M72 465v180l714 -16l-10 -164h-704z" />
<glyph unicode="&#xae;" horiz-adv-x="925" d="M51 967q0 80 32 146.5t87 114.5t131 75.5t162 27.5q88 0 163.5 -27.5t132 -75.5t88.5 -114.5t32 -146.5t-32 -146.5t-88.5 -115t-132 -76t-163.5 -27.5q-86 0 -162 27.5t-131 76t-87 115t-32 146.5zM172 967q0 -129 83 -201t208 -72q63 0 116.5 18.5t92.5 53.5t61.5 85 t22.5 116q0 63 -22.5 114.5t-61.5 86t-92.5 53t-116.5 18.5q-125 0 -208 -71.5t-83 -200.5zM262 858l51 10v207l-47 2l-4 62q53 10 110.5 14t106.5 4q27 0 58.5 -5t59.5 -18.5t46.5 -36t18.5 -57.5q0 -37 -25 -62.5t-66 -33.5q12 -4 19.5 -11t11.5 -15l16 -29l9.5 -9.5 t13.5 -5.5q25 0 31 17l37 -17q-10 -39 -32 -61t-56 -22q-33 0 -62 19t-39 48l-22 57h-84v-49l47 -8l-4 -61h-191zM414 987h75q72 0 72 47q0 25 -19.5 35t-66.5 10h-30.5t-30.5 -4v-88z" />
<glyph unicode="&#xaf;" horiz-adv-x="841" d="M43 1313l12 6l224 -8h501v-150h-729z" />
<glyph unicode="&#xb0;" horiz-adv-x="780" d="M68 1028q0 51 20.5 100.5t60 88t101 62.5t141.5 24t141.5 -24t101.5 -62.5t60.5 -88t20.5 -100.5t-20.5 -100t-60.5 -88t-101.5 -62.5t-141.5 -23.5t-141.5 23.5t-101 62.5t-60 88t-20.5 100zM250 1028q0 -29 6 -55.5t22.5 -48t44 -33.5t68.5 -12q82 0 113 46t31 103 t-31 103.5t-113 46.5q-41 0 -68.5 -12.5t-44 -34t-22.5 -48t-6 -55.5z" />
<glyph unicode="&#xb1;" horiz-adv-x="886" d="M72 682v168l276 -6v260h201l-6 -264l284 -6l-10 -152h-278l-7 -285l-184 11v274h-276zM94 158v170l715 -17l-10 -153h-705z" />
<glyph unicode="&#xb4;" horiz-adv-x="409" d="M25 1214l178 334l176 -102l-227 -309z" />
<glyph unicode="&#xb6;" horiz-adv-x="747" d="M27 956q0 84 23.5 140.5t64.5 90.5t96 48t121 14h65v-1366l-112 -10l-21 16l-39 791q-86 16 -142 79.5t-56 196.5zM492 -117v1366h194l-55 -1360l-21 -16z" />
<glyph unicode="&#xb7;" horiz-adv-x="624" d="M117 571q0 82 57 124t139 42t139.5 -42t57.5 -124t-57.5 -123.5t-139.5 -41.5t-139 41.5t-57 123.5z" />
<glyph unicode="&#xb8;" horiz-adv-x="540" d="M-6 -442l33 90q37 -14 71.5 -19.5t65.5 -5.5q61 0 102 23.5t41 74.5q0 39 -26.5 55.5t-61.5 16.5q-29 0 -49 -3t-43 -9l-23 35l89 256h192l-125 -164q84 0 143.5 -44t59.5 -130q0 -98 -74 -163t-190 -65q-57 0 -110.5 11.5t-94.5 40.5z" />
<glyph unicode="&#xbb;" horiz-adv-x="929" d="M53 229l203 279l-203 299l107 76l356 -336v-58l-356 -335zM414 229l202 279l-202 299l106 76l357 -336v-58l-357 -335z" />
<glyph unicode="&#xbf;" horiz-adv-x="1536" d="M59 203q0 154 100.5 258t296.5 141l322 63v183h135l147 -250l-18 -57q-53 -33 -124 -52.5t-169 -40.5l-278 -57q-80 -16 -112 -69.5t-32 -118.5q0 -51 33 -89t91 -64t139 -38t180 -12q55 0 115.5 5t115.5 15.5t102 23.5t78 30l41 274h160l70 -379q-117 -74 -277 -117 t-405 -43q-147 0 -277.5 22.5t-227 71t-151.5 122t-55 178.5zM675 1118q0 76 54.5 116t132.5 40t131 -40t53 -116q0 -78 -53 -118t-131 -40t-132.5 40t-54.5 118z" />
<glyph unicode="&#xc0;" d="M31 125l205 43l438 801l112 248l242 69h12l551 -1122l187 -39l-11 -125h-641l-10 125l191 41l-88 184h-670l-92 -184l192 -41l-10 -125h-598zM590 1679l186 101l162 -361l-127 -63zM631 518h510l-234 514h-20z" />
<glyph unicode="&#xc1;" d="M31 125l205 43l438 801l112 248l242 69h12l551 -1122l187 -39l-11 -125h-641l-10 125l191 41l-88 184h-670l-92 -184l192 -41l-10 -125h-598zM631 518h510l-234 514h-20zM879 1419l162 361l186 -101l-221 -323z" />
<glyph unicode="&#xc2;" d="M31 125l205 43l438 801l112 248l242 69h12l551 -1122l187 -39l-11 -125h-641l-10 125l191 41l-88 184h-670l-92 -184l192 -41l-10 -125h-598zM555 1438l351 272l350 -272l-66 -109l-284 146l-285 -146zM631 518h510l-234 514h-20z" />
<glyph unicode="&#xc3;" d="M31 125l205 43l438 801l112 248l242 69h12l551 -1122l187 -39l-11 -125h-641l-10 125l191 41l-88 184h-670l-92 -184l192 -41l-10 -125h-598zM527 1481q66 72 130 104.5t156 32.5q55 0 96.5 -13t77 -30.5t70.5 -31t76 -13.5q53 0 85 9.5t66 37.5l68 -92 q-45 -59 -102.5 -87t-133.5 -28q-57 0 -99 12.5t-79 26t-73.5 25.5t-83.5 12q-84 0 -166 -69zM631 518h510l-234 514h-20z" />
<glyph unicode="&#xc4;" d="M31 125l205 43l438 801l112 248l242 69h12l551 -1122l187 -39l-11 -125h-641l-10 125l191 41l-88 184h-670l-92 -184l192 -41l-10 -125h-598zM502 1518q0 37 15 65.5t40.5 48t58.5 29.5t68 10q33 0 65.5 -10t59 -29.5t42 -48.5t15.5 -65q0 -37 -15.5 -66t-42 -48.5 t-59 -29.5t-65.5 -10q-35 0 -68 10t-58.5 29.5t-40.5 48.5t-15 66zM631 518h510l-234 514h-20zM1030 1518q0 37 15.5 65.5t41 48t58 29.5t67.5 10q33 0 65.5 -10t59.5 -29.5t42 -48.5t15 -65q0 -37 -15 -66t-42 -48.5t-59.5 -29.5t-65.5 -10q-35 0 -67.5 10t-58 29.5 t-41 48.5t-15.5 66z" />
<glyph unicode="&#xc5;" d="M31 125l205 43l438 801l112 248l242 69h12l551 -1122l187 -39l-11 -125h-641l-10 125l191 41l-88 184h-670l-92 -184l192 -41l-10 -125h-598zM631 518h510l-234 514h-20zM672 1585q0 102 73 162.5t179 60.5q109 0 181.5 -60.5t72.5 -162.5t-73 -162.5t-181 -60.5 q-106 0 -179 60t-73 163zM815 1585q0 -61 32 -86t77 -25q47 0 78.5 24.5t31.5 86.5q0 61 -31.5 84.5t-78.5 23.5q-45 0 -77 -23.5t-32 -84.5z" />
<glyph unicode="&#xc6;" horiz-adv-x="2355" d="M25 125l180 43l698 915l-182 39l29 140h20l354 -13h742l395 13h12l-30 -433l-160 17l-10 229h-656v-321h359l63 151l123 -10v-496l-125 -8l-61 191h-359v-406h656l79 281l152 -8l-39 -449h-1288l-10 125l200 43v137h-608l-102 -141l166 -39l-11 -125h-577zM678 473h489 v592h-47z" />
<glyph unicode="&#xc7;" horiz-adv-x="1492" d="M61 625q0 143 52.5 266t150.5 214t239.5 143t319.5 52q154 0 297.5 -25.5t278.5 -84.5l-21 -391l-164 10l-32 229q-68 51 -157 75t-181 24q-117 0 -213 -34t-167 -99.5t-110 -160.5t-39 -218t39 -218.5t110 -161t167 -99t213 -33.5q92 0 181 23.5t157 74.5l32 246h164 l21 -389q-119 -53 -243 -82t-255 -35l-57 -76q90 0 153.5 -47t63.5 -139q0 -106 -79 -175t-206 -69q-59 0 -117.5 12.5t-101.5 40.5l35 99q41 -16 78 -21.5t69 -5.5q66 0 110 25.5t44 78.5q0 41 -27.5 59.5t-66.5 18.5q-53 0 -99 -14l-24 39l59 176q-158 12 -282.5 68.5 t-211.5 145.5t-133.5 205.5t-46.5 252.5z" />
<glyph unicode="&#xc8;" horiz-adv-x="1513" d="M61 125l201 43v913l-201 43l11 125h946l358 13l15 -9l-27 -417l-162 8l-18 231h-672v-319h377l63 149l127 -10v-494l-133 -10l-57 193h-377v-410h676l82 289l164 -14l-41 -449h-1321zM553 1679l186 101l162 -361l-127 -63z" />
<glyph unicode="&#xc9;" horiz-adv-x="1513" d="M61 125l201 43v913l-201 43l11 125h946l358 13l15 -9l-27 -417l-162 8l-18 231h-672v-319h377l63 149l127 -10v-494l-133 -10l-57 193h-377v-410h676l82 289l164 -14l-41 -449h-1321zM746 1415l162 361l186 -101l-221 -323z" />
<glyph unicode="&#xca;" horiz-adv-x="1513" d="M61 125l201 43v913l-201 43l11 125h946l358 13l15 -9l-27 -417l-162 8l-18 231h-672v-319h377l63 149l127 -10v-494l-133 -10l-57 193h-377v-410h676l82 289l164 -14l-41 -449h-1321zM411 1454l351 272l350 -272l-66 -109l-284 146l-285 -146z" />
<glyph unicode="&#xcb;" horiz-adv-x="1513" d="M61 125l201 43v913l-201 43l11 125h946l358 13l15 -9l-27 -417l-162 8l-18 231h-672v-319h377l63 149l127 -10v-494l-133 -10l-57 193h-377v-410h676l82 289l164 -14l-41 -449h-1321zM347 1522q0 37 15 65.5t40.5 48t58.5 29.5t68 10q33 0 65.5 -10t59 -29.5t42 -48.5 t15.5 -65q0 -37 -15.5 -66t-42 -48.5t-59 -29.5t-65.5 -10q-35 0 -68 10t-58.5 29.5t-40.5 48.5t-15 66zM875 1522q0 37 15.5 65.5t41 48t58 29.5t67.5 10q33 0 65.5 -10t59.5 -29.5t42 -48.5t15 -65q0 -37 -15 -66t-42 -48.5t-59.5 -29.5t-65.5 -10q-35 0 -67.5 10 t-58 29.5t-41 48.5t-15.5 66z" />
<glyph unicode="&#xcc;" horiz-adv-x="778" d="M61 125l201 45v911l-201 43l11 125h635l10 -125l-203 -43v-911l203 -45l-10 -125h-635zM137 1679l186 101l162 -361l-127 -63z" />
<glyph unicode="&#xcd;" horiz-adv-x="778" d="M61 125l201 45v911l-201 43l11 125h635l10 -125l-203 -43v-911l203 -45l-10 -125h-635zM317 1419l162 361l186 -101l-221 -323z" />
<glyph unicode="&#xce;" horiz-adv-x="778" d="M40 1450l351 272l350 -272l-66 -109l-284 146l-285 -146zM61 125l201 45v911l-201 43l11 125h635l10 -125l-203 -43v-911l203 -45l-10 -125h-635z" />
<glyph unicode="&#xcf;" horiz-adv-x="778" d="M-57 1520q0 37 15 65.5t40.5 48t58.5 29.5t68 10q33 0 65.5 -10t59 -29.5t42 -48.5t15.5 -65q0 -37 -15.5 -66t-42 -48.5t-59 -29.5t-65.5 -10q-35 0 -68 10t-58.5 29.5t-40.5 48.5t-15 66zM61 125l201 45v911l-201 43l11 125h635l10 -125l-203 -43v-911l203 -45 l-10 -125h-635zM471 1520q0 37 15.5 65.5t41 48t58 29.5t67.5 10q33 0 65.5 -10t59.5 -29.5t42 -48.5t15 -65q0 -37 -15 -66t-42 -48.5t-59.5 -29.5t-65.5 -10q-35 0 -67.5 10t-58 29.5t-41 48.5t-15.5 66z" />
<glyph unicode="&#xd0;" horiz-adv-x="1671" d="M61 25l11 129l200 16v418l-168 -4l-10 174l12 4l166 -8v331l-200 19l-11 129q92 12 179.5 20.5t180.5 13.5t198.5 8t232.5 3q168 0 307 -40t239.5 -120t156 -201.5t55.5 -283.5q0 -164 -55.5 -286t-156 -204t-239.5 -122.5t-307 -40.5q-127 0 -232.5 3t-198.5 8t-180 13 t-180 21zM522 172q76 -14 153 -20.5t175 -6.5q117 0 210 28t158.5 87t101.5 151.5t36 221.5t-36 220t-101.5 148.5t-158.5 84t-210 26.5q-98 0 -175 -6t-153 -21v-340l387 -4l11 -145l-11 -8l-387 -4v-412z" />
<glyph unicode="&#xd1;" horiz-adv-x="1759" d="M53 125l191 41v917l-191 43l10 123h517l739 -905h18v739l-221 43l10 123h570l10 -123l-160 -43v-1048l-219 -64l-883 1053h-14l27 -438v-420l213 -41l-11 -125h-596zM494 1489q66 72 130 104.5t156 32.5q55 0 96.5 -13t77 -30.5t70.5 -31t76 -13.5q53 0 85 9.5t66 37.5 l68 -92q-45 -59 -102.5 -87t-133.5 -28q-57 0 -99 12.5t-79 26t-73.5 25.5t-83.5 12q-84 0 -166 -69z" />
<glyph unicode="&#xd2;" horiz-adv-x="1626" d="M61 625q0 150 53.5 274.5t152 213.5t237.5 138t309 49t309.5 -49t237.5 -138t151.5 -214t53.5 -274q0 -152 -53.5 -276t-151.5 -213t-237.5 -138t-309.5 -49t-309 49t-237.5 138t-152 213t-53.5 276zM315 625q0 -242 132.5 -374t365.5 -132t365.5 132t132.5 374 t-132.5 373.5t-365.5 131.5t-365.5 -132t-132.5 -373zM559 1679l186 101l162 -361l-127 -63z" />
<glyph unicode="&#xd3;" horiz-adv-x="1626" d="M61 625q0 150 53.5 274.5t152 213.5t237.5 138t309 49t309.5 -49t237.5 -138t151.5 -214t53.5 -274q0 -152 -53.5 -276t-151.5 -213t-237.5 -138t-309.5 -49t-309 49t-237.5 138t-152 213t-53.5 276zM315 625q0 -242 132.5 -374t365.5 -132t365.5 132t132.5 374 t-132.5 373.5t-365.5 131.5t-365.5 -132t-132.5 -373zM748 1419l162 361l186 -101l-221 -323z" />
<glyph unicode="&#xd4;" horiz-adv-x="1626" d="M61 625q0 150 53.5 274.5t152 213.5t237.5 138t309 49t309.5 -49t237.5 -138t151.5 -214t53.5 -274q0 -152 -53.5 -276t-151.5 -213t-237.5 -138t-309.5 -49t-309 49t-237.5 138t-152 213t-53.5 276zM315 625q0 -242 132.5 -374t365.5 -132t365.5 132t132.5 374 t-132.5 373.5t-365.5 131.5t-365.5 -132t-132.5 -373zM464 1454l351 272l350 -272l-66 -109l-284 146l-285 -146z" />
<glyph unicode="&#xd5;" horiz-adv-x="1626" d="M61 625q0 150 53.5 274.5t152 213.5t237.5 138t309 49t309.5 -49t237.5 -138t151.5 -214t53.5 -274q0 -152 -53.5 -276t-151.5 -213t-237.5 -138t-309.5 -49t-309 49t-237.5 138t-152 213t-53.5 276zM315 625q0 -242 132.5 -374t365.5 -132t365.5 132t132.5 374 t-132.5 373.5t-365.5 131.5t-365.5 -132t-132.5 -373zM410 1493q66 72 130 104.5t156 32.5q55 0 96.5 -13t77 -30.5t70.5 -31t76 -13.5q53 0 85 9.5t66 37.5l68 -92q-45 -59 -102.5 -87t-133.5 -28q-57 0 -99 12.5t-79 26t-73.5 25.5t-83.5 12q-84 0 -166 -69z" />
<glyph unicode="&#xd6;" horiz-adv-x="1626" d="M61 625q0 150 53.5 274.5t152 213.5t237.5 138t309 49t309.5 -49t237.5 -138t151.5 -214t53.5 -274q0 -152 -53.5 -276t-151.5 -213t-237.5 -138t-309.5 -49t-309 49t-237.5 138t-152 213t-53.5 276zM315 625q0 -242 132.5 -374t365.5 -132t365.5 132t132.5 374 t-132.5 373.5t-365.5 131.5t-365.5 -132t-132.5 -373zM369 1547q0 37 15 65.5t40.5 48t58.5 29.5t68 10q33 0 65.5 -10t59 -29.5t42 -48.5t15.5 -65q0 -37 -15.5 -66t-42 -48.5t-59 -29.5t-65.5 -10q-35 0 -68 10t-58.5 29.5t-40.5 48.5t-15 66zM897 1547q0 37 15.5 65.5 t41 48t58 29.5t67.5 10q33 0 65.5 -10t59.5 -29.5t42 -48.5t15 -65q0 -37 -15 -66t-42 -48.5t-59.5 -29.5t-65.5 -10q-35 0 -67.5 10t-58 29.5t-41 48.5t-15.5 66z" />
<glyph unicode="&#xd7;" horiz-adv-x="886" d="M109 424l196 199l-196 204l137 123l194 -194l195 196l125 -125l-199 -190l182 -184l-141 -142l-182 191l-205 -197z" />
<glyph unicode="&#xd8;" horiz-adv-x="1626" d="M61 625q0 150 53.5 274.5t152 213.5t237.5 138t309 49q137 0 253 -31.5t208 -90.5l115 110h14l113 -121l-109 -104q76 -86 117 -196.5t41 -241.5q0 -152 -53.5 -276t-151.5 -213t-237.5 -138t-309.5 -49q-133 0 -244.5 29.5t-203.5 82.5l-127 -120l-117 116l112 111 q-84 88 -128 202.5t-44 254.5zM315 625q0 -178 76 -306l742 719q-61 47 -141.5 72t-178.5 25q-233 0 -365.5 -134.5t-132.5 -375.5zM506 199q121 -84 307 -84q233 0 365.5 134t132.5 376q0 84 -17.5 154.5t-48.5 127.5z" />
<glyph unicode="&#xd9;" horiz-adv-x="1802" d="M78 1124l10 125h631l10 -125l-199 -43v-581q0 -98 33 -170t89.5 -118t133 -67.5t164.5 -21.5q84 0 154 24.5t121 75.5t78.5 128t27.5 181v553l-192 39l10 125h559l10 -125l-174 -39v-532q0 -152 -50 -265.5t-134 -189t-196.5 -112.5t-235.5 -37q-141 0 -260 37 t-205 111.5t-135 187t-49 264.5v532zM633 1679l186 101l162 -361l-127 -63z" />
<glyph unicode="&#xda;" horiz-adv-x="1802" d="M78 1124l10 125h631l10 -125l-199 -43v-581q0 -98 33 -170t89.5 -118t133 -67.5t164.5 -21.5q84 0 154 24.5t121 75.5t78.5 128t27.5 181v553l-192 39l10 125h559l10 -125l-174 -39v-532q0 -152 -50 -265.5t-134 -189t-196.5 -112.5t-235.5 -37q-141 0 -260 37 t-205 111.5t-135 187t-49 264.5v532zM862 1419l162 361l186 -101l-221 -323z" />
<glyph unicode="&#xdb;" horiz-adv-x="1802" d="M78 1124l10 125h631l10 -125l-199 -43v-581q0 -98 33 -170t89.5 -118t133 -67.5t164.5 -21.5q84 0 154 24.5t121 75.5t78.5 128t27.5 181v553l-192 39l10 125h559l10 -125l-174 -39v-532q0 -152 -50 -265.5t-134 -189t-196.5 -112.5t-235.5 -37q-141 0 -260 37 t-205 111.5t-135 187t-49 264.5v532zM589 1460l351 272l350 -272l-66 -109l-284 146l-285 -146z" />
<glyph unicode="&#xdc;" horiz-adv-x="1802" d="M78 1124l10 125h631l10 -125l-199 -43v-581q0 -98 33 -170t89.5 -118t133 -67.5t164.5 -21.5q84 0 154 24.5t121 75.5t78.5 128t27.5 181v553l-192 39l10 125h559l10 -125l-174 -39v-532q0 -152 -50 -265.5t-134 -189t-196.5 -112.5t-235.5 -37q-141 0 -260 37 t-205 111.5t-135 187t-49 264.5v532zM504 1530q0 37 15 65.5t40.5 48t58.5 29.5t68 10q33 0 65.5 -10t59 -29.5t42 -48.5t15.5 -65q0 -37 -15.5 -66t-42 -48.5t-59 -29.5t-65.5 -10q-35 0 -68 10t-58.5 29.5t-40.5 48.5t-15 66zM1032 1530q0 37 15.5 65.5t41 48t58 29.5 t67.5 10q33 0 65.5 -10t59.5 -29.5t42 -48.5t15 -65q0 -37 -15 -66t-42 -48.5t-59.5 -29.5t-65.5 -10q-35 0 -67.5 10t-58 29.5t-41 48.5t-15.5 66z" />
<glyph unicode="&#xdd;" horiz-adv-x="1796" d="M51 1124l10 125h676l11 -125l-179 -37l375 -520h19l352 510l-223 47l10 125h633l10 -125l-201 -43l-495 -686v-227l200 -43l-10 -125h-631l-10 125l201 43v231l-557 686zM897 1419l162 361l186 -101l-221 -323z" />
<glyph unicode="&#xde;" horiz-adv-x="1533" d="M72 125l200 45v911l-200 43l10 125h635l10 -125l-203 -43v-73q72 12 138.5 21t142.5 9q131 0 252 -16t213 -60t147.5 -124t55.5 -209q0 -98 -41 -177t-115 -134.5t-174.5 -85t-218.5 -29.5q-59 0 -108.5 2t-95.5 6t-93 11t-103 18v-70l203 -45l-10 -125h-635zM524 406 q86 -16 160 -23.5t176 -7.5q176 0 272.5 63.5t96.5 200.5q0 74 -36 119t-93.5 70.5t-129 33.5t-145.5 8t-143.5 -7t-157.5 -23v-434z" />
<glyph unicode="&#xdf;" horiz-adv-x="1447" d="M51 127l150 18v891q0 102 37.5 181t102.5 132.5t152 80t185 26.5q199 0 309.5 -74.5t110.5 -205.5q0 -92 -50.5 -151.5t-105.5 -88.5q-61 -33 -101 -61.5t-40 -75.5q0 -41 30.5 -69t98.5 -46l211 -55q129 -35 198.5 -112t69.5 -212q0 -68 -27.5 -130t-83 -110.5 t-141.5 -77t-203 -28.5q-76 0 -133 5t-106 16.5t-96.5 31t-104.5 47.5l94 177q47 -29 89 -49.5t82 -35t83 -20.5t92 -6q119 0 169.5 47t50.5 113q0 63 -30 102t-106 62l-250 67q-104 29 -158.5 95.5t-54.5 160.5q0 49 16.5 86t43.5 64.5t58.5 49t60.5 38.5q51 29 79.5 62.5 t28.5 78.5q0 70 -46 104.5t-152 34.5q-45 0 -85 -12t-69 -41t-46.5 -76t-17.5 -117v-1044h-385z" />
<glyph unicode="&#xe0;" horiz-adv-x="1423" d="M74 303q0 74 31.5 132.5t89 100.5t137.5 68.5t178 40.5q111 16 214 20.5t226 4.5v69q0 68 -68.5 112t-230.5 44q-92 0 -193.5 -21.5t-215.5 -72.5l-58 153q117 59 240 85t264 26q133 0 230.5 -26.5t160 -76t92 -118t29.5 -150.5v-485q0 -33 15.5 -53.5t48.5 -20.5h92 l10 -135q-43 -14 -79 -20.5t-77 -6.5q-90 0 -136 35t-62 98q-84 -72 -201 -109.5t-258 -37.5q-90 0 -176 15.5t-153.5 55.5t-108.5 105.5t-41 167.5zM330 305q0 -74 59.5 -124t190.5 -50q213 0 370 88v305q-119 0 -221 -6t-190 -20q-111 -16 -160 -61.5t-49 -131.5z M414 1446l176 102l178 -334l-127 -77z" />
<glyph unicode="&#xe1;" horiz-adv-x="1423" d="M74 303q0 74 31.5 132.5t89 100.5t137.5 68.5t178 40.5q111 16 214 20.5t226 4.5v69q0 68 -68.5 112t-230.5 44q-92 0 -193.5 -21.5t-215.5 -72.5l-58 153q117 59 240 85t264 26q133 0 230.5 -26.5t160 -76t92 -118t29.5 -150.5v-485q0 -33 15.5 -53.5t48.5 -20.5h92 l10 -135q-43 -14 -79 -20.5t-77 -6.5q-90 0 -136 35t-62 98q-84 -72 -201 -109.5t-258 -37.5q-90 0 -176 15.5t-153.5 55.5t-108.5 105.5t-41 167.5zM330 305q0 -74 59.5 -124t190.5 -50q213 0 370 88v305q-119 0 -221 -6t-190 -20q-111 -16 -160 -61.5t-49 -131.5z M596 1214l178 334l176 -102l-227 -309z" />
<glyph unicode="&#xe2;" horiz-adv-x="1423" d="M74 303q0 74 31.5 132.5t89 100.5t137.5 68.5t178 40.5q111 16 214 20.5t226 4.5v69q0 68 -68.5 112t-230.5 44q-92 0 -193.5 -21.5t-215.5 -72.5l-58 153q117 59 240 85t264 26q133 0 230.5 -26.5t160 -76t92 -118t29.5 -150.5v-485q0 -33 15.5 -53.5t48.5 -20.5h92 l10 -135q-43 -14 -79 -20.5t-77 -6.5q-90 0 -136 35t-62 98q-84 -72 -201 -109.5t-258 -37.5q-90 0 -176 15.5t-153.5 55.5t-108.5 105.5t-41 167.5zM320 1210l337 295h33l328 -299l-74 -88l-276 170l-279 -170zM330 305q0 -74 59.5 -124t190.5 -50q213 0 370 88v305 q-119 0 -221 -6t-190 -20q-111 -16 -160 -61.5t-49 -131.5z" />
<glyph unicode="&#xe3;" horiz-adv-x="1423" d="M74 303q0 74 31.5 132.5t89 100.5t137.5 68.5t178 40.5q111 16 214 20.5t226 4.5v69q0 68 -68.5 112t-230.5 44q-92 0 -193.5 -21.5t-215.5 -72.5l-58 153q117 59 240 85t264 26q133 0 230.5 -26.5t160 -76t92 -118t29.5 -150.5v-485q0 -33 15.5 -53.5t48.5 -20.5h92 l10 -135q-43 -14 -79 -20.5t-77 -6.5q-90 0 -136 35t-62 98q-84 -72 -201 -109.5t-258 -37.5q-90 0 -176 15.5t-153.5 55.5t-108.5 105.5t-41 167.5zM330 305q0 -74 59.5 -124t190.5 -50q213 0 370 88v305q-119 0 -221 -6t-190 -20q-111 -16 -160 -61.5t-49 -131.5z M344 1243q59 70 127 99.5t150 29.5q45 0 77.5 -12t61.5 -26.5t57.5 -27t65.5 -12.5q47 0 74.5 8.5t60.5 32.5l59 -88q-41 -53 -103.5 -77.5t-123.5 -24.5q-45 0 -79 10t-64.5 23.5t-62.5 23.5t-75 10q-41 0 -76.5 -16t-70.5 -45z" />
<glyph unicode="&#xe4;" horiz-adv-x="1423" d="M74 303q0 74 31.5 132.5t89 100.5t137.5 68.5t178 40.5q111 16 214 20.5t226 4.5v69q0 68 -68.5 112t-230.5 44q-92 0 -193.5 -21.5t-215.5 -72.5l-58 153q117 59 240 85t264 26q133 0 230.5 -26.5t160 -76t92 -118t29.5 -150.5v-485q0 -33 15.5 -53.5t48.5 -20.5h92 l10 -135q-43 -14 -79 -20.5t-77 -6.5q-90 0 -136 35t-62 98q-84 -72 -201 -109.5t-258 -37.5q-90 0 -176 15.5t-153.5 55.5t-108.5 105.5t-41 167.5zM318 1284q0 55 44 90t103 35t103.5 -35t44.5 -90t-44 -90t-104 -35q-59 0 -103 35t-44 90zM330 305q0 -74 59.5 -124 t190.5 -50q213 0 370 88v305q-119 0 -221 -6t-190 -20q-111 -16 -160 -61.5t-49 -131.5zM799 1284q0 55 44.5 90t103.5 35t103 -35t44 -90t-44 -90t-103 -35t-103.5 35t-44.5 90z" />
<glyph unicode="&#xe5;" horiz-adv-x="1423" d="M74 303q0 74 31.5 132.5t89 100.5t137.5 68.5t178 40.5q111 16 214 20.5t226 4.5v69q0 68 -68.5 112t-230.5 44q-92 0 -193.5 -21.5t-215.5 -72.5l-58 153q117 59 240 85t264 26q133 0 230.5 -26.5t160 -76t92 -118t29.5 -150.5v-485q0 -33 15.5 -53.5t48.5 -20.5h92 l10 -135q-43 -14 -79 -20.5t-77 -6.5q-90 0 -136 35t-62 98q-84 -72 -201 -109.5t-258 -37.5q-90 0 -176 15.5t-153.5 55.5t-108.5 105.5t-41 167.5zM330 305q0 -74 59.5 -124t190.5 -50q213 0 370 88v305q-119 0 -221 -6t-190 -20q-111 -16 -160 -61.5t-49 -131.5z M428 1350q0 98 70 155.5t172 57.5t171.5 -57.5t69.5 -155.5t-69.5 -155.5t-171.5 -57.5t-172 57t-70 156zM565 1350q0 -59 31 -82t74 -23t73.5 22.5t30.5 82.5q0 59 -30.5 81.5t-73.5 22.5t-74 -22.5t-31 -81.5z" />
<glyph unicode="&#xe6;" horiz-adv-x="2127" d="M53 303q0 74 32 132.5t89 100.5t137 68.5t178 40.5q109 14 204 19.5t216 5.5v69q0 33 -13 61.5t-45 50t-86 33t-134 11.5q-92 0 -193.5 -21.5t-216.5 -72.5l-57 153q117 59 239.5 85t264.5 26q160 0 256 -39t155 -106q80 68 182.5 106.5t247.5 38.5q276 0 420 -145.5 t144 -397.5q0 -23 -2.5 -46t-8.5 -46l-12 -12h-502l-403 22q16 -156 100 -236.5t250 -80.5q72 0 125 6t97 19.5t86 37t91 58.5l88 -148q-55 -39 -108 -65.5t-110.5 -42t-123 -22.5t-145.5 -7q-162 0 -272.5 47t-188.5 139q-127 -109 -249.5 -147.5t-252.5 -38.5 q-90 0 -176 15.5t-153.5 55.5t-108.5 105.5t-41 167.5zM309 305q0 -74 59.5 -124t190.5 -50q111 0 191.5 28.5t158.5 100.5v264q-119 0 -211 -6t-180 -20q-111 -16 -160 -61.5t-49 -131.5zM1145 588h690q-8 168 -93 240.5t-233 72.5q-170 0 -256 -80t-108 -233z" />
<glyph unicode="&#xe7;" horiz-adv-x="1277" d="M55 512q0 115 44 216t128 176t205 118t273 43q156 0 279.5 -28.5t215.5 -75.5l-29 -412h-149l-39 295q-66 29 -132.5 43t-145.5 14q-96 0 -170 -28.5t-125.5 -80t-78 -123t-26.5 -157.5t23.5 -156.5t70.5 -123t118 -81t167 -28.5q72 0 128 7t104.5 22.5t93.5 39t94 58.5 l88 -148q-104 -74 -221 -106.5t-250 -36.5l-39 -51q84 0 143.5 -44t59.5 -130q0 -98 -74 -163t-190 -65q-57 0 -110.5 11.5t-94.5 40.5l33 90q37 -14 71.5 -19.5t65.5 -5.5q61 0 102 23.5t41 74.5q0 39 -26.5 55.5t-61.5 16.5q-29 0 -49.5 -3t-42.5 -9l-23 35l52 149 q-125 14 -222.5 63.5t-164 122t-101.5 165t-35 196.5z" />
<glyph unicode="&#xe8;" horiz-adv-x="1337" d="M55 512q0 115 43 216t125 176t201 118t270 43q137 0 247 -38t185.5 -107.5t115.5 -171t40 -226.5q0 -23 -2 -46t-8 -46l-12 -12h-527l-424 22q16 -156 110.5 -236.5t260.5 -80.5q72 0 128 6t104.5 19.5t93.5 37t94 58.5l88 -148q-111 -78 -229.5 -107.5t-278.5 -29.5 q-150 0 -266.5 43t-196.5 119t-121 176t-41 215zM309 588h723q-8 168 -99 240.5t-239 72.5q-170 0 -266 -80t-119 -233zM396 1446l176 102l178 -334l-127 -77z" />
<glyph unicode="&#xe9;" horiz-adv-x="1337" d="M55 512q0 115 43 216t125 176t201 118t270 43q137 0 247 -38t185.5 -107.5t115.5 -171t40 -226.5q0 -23 -2 -46t-8 -46l-12 -12h-527l-424 22q16 -156 110.5 -236.5t260.5 -80.5q72 0 128 6t104.5 19.5t93.5 37t94 58.5l88 -148q-111 -78 -229.5 -107.5t-278.5 -29.5 q-150 0 -266.5 43t-196.5 119t-121 176t-41 215zM309 588h723q-8 168 -99 240.5t-239 72.5q-170 0 -266 -80t-119 -233zM639 1214l178 334l176 -102l-227 -309z" />
<glyph unicode="&#xea;" horiz-adv-x="1337" d="M55 512q0 115 43 216t125 176t201 118t270 43q137 0 247 -38t185.5 -107.5t115.5 -171t40 -226.5q0 -23 -2 -46t-8 -46l-12 -12h-527l-424 22q16 -156 110.5 -236.5t260.5 -80.5q72 0 128 6t104.5 19.5t93.5 37t94 58.5l88 -148q-111 -78 -229.5 -107.5t-278.5 -29.5 q-150 0 -266.5 43t-196.5 119t-121 176t-41 215zM309 588h723q-8 168 -99 240.5t-239 72.5q-170 0 -266 -80t-119 -233zM349 1210l337 295h33l328 -299l-74 -88l-276 170l-279 -170z" />
<glyph unicode="&#xeb;" horiz-adv-x="1337" d="M55 512q0 115 43 216t125 176t201 118t270 43q137 0 247 -38t185.5 -107.5t115.5 -171t40 -226.5q0 -23 -2 -46t-8 -46l-12 -12h-527l-424 22q16 -156 110.5 -236.5t260.5 -80.5q72 0 128 6t104.5 19.5t93.5 37t94 58.5l88 -148q-111 -78 -229.5 -107.5t-278.5 -29.5 q-150 0 -266.5 43t-196.5 119t-121 176t-41 215zM309 588h723q-8 168 -99 240.5t-239 72.5q-170 0 -266 -80t-119 -233zM318 1284q0 55 44 90t103 35t103.5 -35t44.5 -90t-44 -90t-104 -35q-59 0 -103 35t-44 90zM799 1284q0 55 44.5 90t103.5 35t103 -35t44 -90t-44 -90 t-103 -35t-103.5 35t-44.5 90z" />
<glyph unicode="&#xec;" horiz-adv-x="643" d="M51 125l148 20v732l-127 12l-11 123l371 20l17 -14v-873l145 -20l-8 -125h-525zM72 1446l176 102l178 -334l-127 -77z" />
<glyph unicode="&#xed;" horiz-adv-x="643" d="M51 125l148 20v732l-127 12l-11 123l371 20l17 -14v-873l145 -20l-8 -125h-525zM226 1214l178 334l176 -102l-227 -309z" />
<glyph unicode="&#xee;" horiz-adv-x="643" d="M-45 1210l337 295h33l328 -299l-74 -88l-276 170l-279 -170zM51 125l148 20v732l-127 12l-11 123l371 20l17 -14v-873l145 -20l-8 -125h-525z" />
<glyph unicode="&#xef;" horiz-adv-x="643" d="M-76 1284q0 55 44 90t103 35t103.5 -35t44.5 -90t-44 -90t-104 -35q-59 0 -103 35t-44 90zM51 125l148 20v732l-127 12l-11 123l371 20l17 -14v-873l145 -20l-8 -125h-525zM405 1284q0 55 44.5 90t103.5 35t103 -35t44 -90t-44 -90t-103 -35t-103.5 35t-44.5 90z" />
<glyph unicode="&#xf0;" horiz-adv-x="1337" d="M55 483q0 92 38 185.5t114 169t189.5 123t265.5 47.5q78 0 142 -17.5t114.5 -44t84 -59.5t52.5 -64l10 6q-41 117 -112.5 208t-174.5 159l-90 -127l-119 78l2 12l84 107q-63 31 -131.5 53t-146.5 39l24 129q197 -4 365 -72l111 158l112 -84l-98 -137q180 -109 288.5 -292 t108.5 -429q0 -127 -32.5 -248t-106.5 -215t-193.5 -151.5t-293.5 -57.5q-152 0 -265.5 47t-189.5 123t-114 169t-38 185zM303 483q0 -78 21.5 -143.5t66.5 -112.5t111.5 -74.5t159.5 -27.5q92 0 158.5 27.5t108.5 74.5t62.5 112.5t20.5 143.5q0 76 -20.5 142.5t-62.5 113.5 t-108.5 75t-158.5 28t-159 -28t-112 -75t-66.5 -113.5t-21.5 -142.5z" />
<glyph unicode="&#xf1;" horiz-adv-x="1531" d="M51 125l146 20v727l-136 9l-10 125l289 28l53 -123q82 76 195.5 115t245.5 39q131 0 228 -35t161.5 -98.5t96.5 -149.5t32 -190v-447l145 -20l-10 -125h-520l-11 125l148 20v467q0 131 -70.5 207t-240.5 76q-111 0 -195 -28.5t-152 -88.5v-633l146 -20l-10 -125h-521z M446 1243q59 70 127 99.5t150 29.5q45 0 77.5 -12t61.5 -26.5t57.5 -27t65.5 -12.5q47 0 74.5 8.5t60.5 32.5l59 -88q-41 -53 -103.5 -77.5t-123.5 -24.5q-45 0 -79 10t-64.5 23.5t-62.5 23.5t-75 10q-41 0 -76.5 -16t-70.5 -45z" />
<glyph unicode="&#xf2;" horiz-adv-x="1409" d="M55 512q0 115 44 215t128 176t205 119t273 43t272.5 -43t204.5 -119t128 -176t44 -215t-44 -216t-128 -176t-205 -118t-272 -43q-152 0 -273 43t-205 118t-128 176t-44 216zM305 512q0 -180 99.5 -284.5t300.5 -104.5q199 0 298 104.5t99 284.5q0 178 -99 283.5 t-298 105.5q-201 0 -300.5 -105.5t-99.5 -283.5zM414 1446l176 102l178 -334l-127 -77z" />
<glyph unicode="&#xf3;" horiz-adv-x="1409" d="M55 512q0 115 44 215t128 176t205 119t273 43t272.5 -43t204.5 -119t128 -176t44 -215t-44 -216t-128 -176t-205 -118t-272 -43q-152 0 -273 43t-205 118t-128 176t-44 216zM305 512q0 -180 99.5 -284.5t300.5 -104.5q199 0 298 104.5t99 284.5q0 178 -99 283.5 t-298 105.5q-201 0 -300.5 -105.5t-99.5 -283.5zM633 1214l178 334l176 -102l-227 -309z" />
<glyph unicode="&#xf4;" horiz-adv-x="1409" d="M55 512q0 115 44 215t128 176t205 119t273 43t272.5 -43t204.5 -119t128 -176t44 -215t-44 -216t-128 -176t-205 -118t-272 -43q-152 0 -273 43t-205 118t-128 176t-44 216zM305 512q0 -180 99.5 -284.5t300.5 -104.5q199 0 298 104.5t99 284.5q0 178 -99 283.5 t-298 105.5q-201 0 -300.5 -105.5t-99.5 -283.5zM355 1210l337 295h33l328 -299l-74 -88l-276 170l-279 -170z" />
<glyph unicode="&#xf5;" horiz-adv-x="1409" d="M55 512q0 115 44 215t128 176t205 119t273 43t272.5 -43t204.5 -119t128 -176t44 -215t-44 -216t-128 -176t-205 -118t-272 -43q-152 0 -273 43t-205 118t-128 176t-44 216zM305 512q0 -180 99.5 -284.5t300.5 -104.5q199 0 298 104.5t99 284.5q0 178 -99 283.5 t-298 105.5q-201 0 -300.5 -105.5t-99.5 -283.5zM336 1243q59 70 127 99.5t150 29.5q45 0 77.5 -12t61.5 -26.5t57.5 -27t65.5 -12.5q47 0 74.5 8.5t60.5 32.5l59 -88q-41 -53 -103.5 -77.5t-123.5 -24.5q-45 0 -79 10t-64.5 23.5t-62.5 23.5t-75 10q-41 0 -76.5 -16 t-70.5 -45z" />
<glyph unicode="&#xf6;" horiz-adv-x="1409" d="M55 512q0 115 44 215t128 176t205 119t273 43t272.5 -43t204.5 -119t128 -176t44 -215t-44 -216t-128 -176t-205 -118t-272 -43q-152 0 -273 43t-205 118t-128 176t-44 216zM305 512q0 -180 99.5 -284.5t300.5 -104.5q199 0 298 104.5t99 284.5q0 178 -99 283.5 t-298 105.5q-201 0 -300.5 -105.5t-99.5 -283.5zM315 1284q0 55 44 90t103 35t103.5 -35t44.5 -90t-44 -90t-104 -35q-59 0 -103 35t-44 90zM796 1284q0 55 44.5 90t103.5 35t103 -35t44 -90t-44 -90t-103 -35t-103.5 35t-44.5 90z" />
<glyph unicode="&#xf7;" horiz-adv-x="839" d="M59 516v172l715 -16l-10 -156h-705zM254 313q0 68 48 104t116 36t116 -36t48 -104t-48.5 -102.5t-115.5 -34.5q-68 0 -116 35t-48 102zM254 893q0 68 48 102.5t116 34.5t116 -34.5t48 -102.5t-48.5 -103.5t-115.5 -35.5q-68 0 -116 35.5t-48 103.5z" />
<glyph unicode="&#xf8;" horiz-adv-x="1409" d="M55 512q0 115 44 215t128 176t205 119t273 43q164 0 294 -53l72 90l135 -96l-2 -15l-55 -63q98 -76 151.5 -183.5t53.5 -232.5q0 -115 -44 -216t-128 -176t-205 -118t-272 -43q-86 0 -160 14.5t-139 38.5l-68 -86l-127 103l51 63q-100 76 -153.5 183.5t-53.5 236.5z M305 512q0 -164 82 -264l498 622q-78 31 -180 31q-201 0 -300.5 -105.5t-99.5 -283.5zM520 154q76 -31 185 -31q199 0 298 104.5t99 284.5q0 158 -82 262z" />
<glyph unicode="&#xf9;" horiz-adv-x="1550" d="M59 899l11 125h520l10 -125l-147 -20v-461q0 -133 70.5 -211t240.5 -78q111 0 194.5 28.5t151.5 88.5v633l-145 20l10 125h520l10 -125l-145 -20v-717l145 -37l-10 -125h-283l-49 113q-82 -76 -195.5 -115t-244.5 -39t-228.5 36t-162 100.5t-96 151.5t-31.5 191v441z M482 1446l176 102l178 -334l-127 -77z" />
<glyph unicode="&#xfa;" horiz-adv-x="1550" d="M59 899l11 125h520l10 -125l-147 -20v-461q0 -133 70.5 -211t240.5 -78q111 0 194.5 28.5t151.5 88.5v633l-145 20l10 125h520l10 -125l-145 -20v-717l145 -37l-10 -125h-283l-49 113q-82 -76 -195.5 -115t-244.5 -39t-228.5 36t-162 100.5t-96 151.5t-31.5 191v441z M711 1214l178 334l176 -102l-227 -309z" />
<glyph unicode="&#xfb;" horiz-adv-x="1550" d="M59 899l11 125h520l10 -125l-147 -20v-461q0 -133 70.5 -211t240.5 -78q111 0 194.5 28.5t151.5 88.5v633l-145 20l10 125h520l10 -125l-145 -20v-717l145 -37l-10 -125h-283l-49 113q-82 -76 -195.5 -115t-244.5 -39t-228.5 36t-162 100.5t-96 151.5t-31.5 191v441z M443 1210l337 295h33l328 -299l-74 -88l-276 170l-279 -170z" />
<glyph unicode="&#xfc;" horiz-adv-x="1550" d="M59 899l11 125h520l10 -125l-147 -20v-461q0 -133 70.5 -211t240.5 -78q111 0 194.5 28.5t151.5 88.5v633l-145 20l10 125h520l10 -125l-145 -20v-717l145 -37l-10 -125h-283l-49 113q-82 -76 -195.5 -115t-244.5 -39t-228.5 36t-162 100.5t-96 151.5t-31.5 191v441z M406 1284q0 55 44 90t103 35t103.5 -35t44.5 -90t-44 -90t-104 -35q-59 0 -103 35t-44 90zM887 1284q0 55 44.5 90t103.5 35t103 -35t44 -90t-44 -90t-103 -35t-103.5 35t-44.5 90z" />
<glyph unicode="&#xfd;" horiz-adv-x="1564" d="M41 897l8 127h600l10 -127l-165 -29l352 -657h22l303 657l-155 29l8 127h498l10 -127l-129 -29l-469 -950q-61 -127 -153.5 -189.5t-223.5 -62.5q-90 0 -152.5 26.5t-109.5 80.5l78 135q86 -41 153 -41q92 0 146.5 35t85.5 98l26 55l-141 37l-444 768zM797 1214l178 334 l176 -102l-227 -309z" />
<glyph unicode="&#xfe;" horiz-adv-x="1460" d="M41 1337l385 25l18 -12v-385q78 53 167 76.5t200 23.5q139 0 248.5 -40t185.5 -113.5t116 -175t40 -224.5q0 -115 -42 -216t-123 -176t-198.5 -118t-271.5 -43q-92 0 -173 17.5t-149 48.5v-222l146 -20l-10 -125h-521l-10 125l146 20v1391l-142 18zM444 182 q78 -29 153 -40t155 -11q182 0 289.5 90t107.5 291q0 102 -27.5 174t-75 118t-113 67.5t-140.5 21.5q-119 0 -201 -28.5t-148 -88.5v-594z" />
<glyph unicode="&#xff;" horiz-adv-x="1564" d="M41 897l8 127h600l10 -127l-165 -29l352 -657h22l303 657l-155 29l8 127h498l10 -127l-129 -29l-469 -950q-61 -127 -153.5 -189.5t-223.5 -62.5q-90 0 -152.5 26.5t-109.5 80.5l78 135q86 -41 153 -41q92 0 146.5 35t85.5 98l26 55l-141 37l-444 768zM471 1284 q0 55 44 90t103 35t103.5 -35t44.5 -90t-44 -90t-104 -35q-59 0 -103 35t-44 90zM952 1284q0 55 44.5 90t103.5 35t103 -35t44 -90t-44 -90t-103 -35t-103.5 35t-44.5 90z" />
<glyph unicode="&#x152;" horiz-adv-x="2443" d="M61 625q0 150 50.5 274.5t142.5 213.5t223 138t295 49q147 0 261 -40.5t196 -112.5v102h710l359 13l14 -9l-26 -417l-162 8l-19 231h-630v-319h335l64 149l127 -10v-494l-133 -10l-58 193h-335v-410h634l82 289l164 -14l-41 -449h-1085v102q-84 -74 -197.5 -113.5 t-259.5 -39.5q-164 0 -295 49t-223 138t-142.5 213t-50.5 276zM315 625q0 -121 34 -215.5t94.5 -160t144.5 -100t184 -34.5t184 34.5t144.5 100t94.5 160t34 215.5t-34 215t-94.5 159.5t-144.5 100.5t-184 35t-184 -35t-144.5 -100.5t-94.5 -160t-34 -214.5z" />
<glyph unicode="&#x153;" horiz-adv-x="2283" d="M55 512q0 115 41 215t121 176t197.5 119t269.5 43q166 0 289 -50t201 -136q78 86 199.5 136t287.5 50q276 0 421.5 -145.5t145.5 -397.5q0 -23 -2 -46t-8 -46l-12 -12h-506l-404 22q16 -156 100.5 -236.5t250.5 -80.5q72 0 125 6t97 19.5t86 37t91 58.5l88 -148 q-55 -39 -108.5 -65.5t-110.5 -42t-123 -22.5t-145 -7q-162 0 -280 48t-193 134q-80 -86 -203 -134t-287 -48q-152 0 -269.5 43t-197.5 118t-121 176t-41 216zM305 512q0 -90 21.5 -161.5t67.5 -122t118 -78t172 -27.5q199 0 288 105.5t89 283.5q0 176 -89 282.5t-288 106.5 q-100 0 -172 -27.5t-118 -79t-67.5 -123t-21.5 -159.5zM1296 588h682q-8 168 -89 240.5t-228 72.5q-170 0 -256 -80t-109 -233z" />
<glyph unicode="&#x178;" horiz-adv-x="1796" d="M51 1124l10 125h676l11 -125l-179 -37l375 -520h19l352 510l-223 47l10 125h633l10 -125l-201 -43l-495 -686v-227l200 -43l-10 -125h-631l-10 125l201 43v231l-557 686zM508 1510q0 37 15 65.5t40.5 48t58.5 29.5t68 10q33 0 65.5 -10t59 -29.5t42 -48.5t15.5 -65 q0 -37 -15.5 -66t-42 -48.5t-59 -29.5t-65.5 -10q-35 0 -68 10t-58.5 29.5t-40.5 48.5t-15 66zM1036 1510q0 37 15.5 65.5t41 48t58 29.5t67.5 10q33 0 65.5 -10t59.5 -29.5t42 -48.5t15 -65q0 -37 -15 -66t-42 -48.5t-59.5 -29.5t-65.5 -10q-35 0 -67.5 10t-58 29.5 t-41 48.5t-15.5 66z" />
<glyph unicode="&#x2c6;" horiz-adv-x="929" d="M109 1210l337 295h33l328 -299l-74 -88l-276 170l-279 -170z" />
<glyph unicode="&#x2dc;" horiz-adv-x="874" d="M51 1243q59 70 127 99.5t150 29.5q45 0 77.5 -12t61.5 -26.5t57.5 -27t65.5 -12.5q47 0 74.5 8.5t60.5 32.5l59 -88q-41 -53 -103.5 -77.5t-123.5 -24.5q-45 0 -79 10t-64.5 23.5t-62.5 23.5t-75 10q-41 0 -76.5 -16t-70.5 -45z" />
<glyph unicode="&#x2000;" horiz-adv-x="904" />
<glyph unicode="&#x2001;" horiz-adv-x="1808" />
<glyph unicode="&#x2002;" horiz-adv-x="904" />
<glyph unicode="&#x2003;" horiz-adv-x="1808" />
<glyph unicode="&#x2004;" horiz-adv-x="602" />
<glyph unicode="&#x2005;" horiz-adv-x="452" />
<glyph unicode="&#x2006;" horiz-adv-x="301" />
<glyph unicode="&#x2007;" horiz-adv-x="301" />
<glyph unicode="&#x2008;" horiz-adv-x="226" />
<glyph unicode="&#x2009;" horiz-adv-x="361" />
<glyph unicode="&#x200a;" horiz-adv-x="100" />
<glyph unicode="&#x2010;" horiz-adv-x="858" d="M72 465v180l714 -16l-10 -164h-704z" />
<glyph unicode="&#x2011;" horiz-adv-x="858" d="M72 465v180l714 -16l-10 -164h-704z" />
<glyph unicode="&#x2012;" horiz-adv-x="858" d="M72 465v180l714 -16l-10 -164h-704z" />
<glyph unicode="&#x2013;" horiz-adv-x="1091" d="M72 465v180l960 -16l-10 -164h-950z" />
<glyph unicode="&#x2014;" horiz-adv-x="1294" d="M72 465v180l1165 -16l-10 -164h-1155z" />
<glyph unicode="&#x2018;" horiz-adv-x="507" d="M90 930q0 94 38 183t110 181l104 -33l-53 -202q49 -8 82 -36t33 -93q0 -66 -46.5 -100t-109.5 -34q-68 0 -113 34t-45 100z" />
<glyph unicode="&#x2019;" horiz-adv-x="507" d="M106 1173q0 66 46.5 100t109.5 34q68 0 113 -34t45 -100q0 -94 -38 -183t-110 -181l-104 33l53 202q-49 8 -82 36t-33 93z" />
<glyph unicode="&#x201a;" horiz-adv-x="507" d="M106 102q0 66 46.5 100t109.5 34q68 0 113 -34t45 -100q0 -94 -38 -183t-110 -181l-104 33l53 202q-49 8 -82 36t-33 93z" />
<glyph unicode="&#x201c;" horiz-adv-x="845" d="M66 936q0 94 37.5 183t109.5 181l105 -33l-54 -202q49 -8 82 -36t33 -93q0 -66 -46 -100t-110 -34q-68 0 -112.5 34t-44.5 100zM426 936q0 94 38 183t110 181l104 -33l-53 -202q49 -8 82 -36t33 -93q0 -66 -46.5 -100t-109.5 -34q-68 0 -113 34t-45 100z" />
<glyph unicode="&#x201d;" horiz-adv-x="845" d="M106 1167q0 66 46.5 100t109.5 34q68 0 113 -34t45 -100q0 -94 -38 -183t-110 -181l-104 33l53 202q-49 8 -82 36t-33 93zM467 1167q0 66 46 100t110 34q68 0 112.5 -34t44.5 -100q0 -94 -37.5 -183t-109.5 -181l-105 33l54 202q-49 8 -82 36t-33 93z" />
<glyph unicode="&#x201e;" horiz-adv-x="845" d="M106 102q0 66 46.5 100t109.5 34q68 0 113 -34t45 -100q0 -94 -38 -183t-110 -181l-104 33l53 202q-49 8 -82 36t-33 93zM467 102q0 66 46 100t110 34q68 0 112.5 -34t44.5 -100q0 -94 -37.5 -183t-109.5 -181l-105 33l54 202q-49 8 -82 36t-33 93z" />
<glyph unicode="&#x2022;" horiz-adv-x="632" d="M106 616q0 90 61.5 136.5t151.5 46.5t151.5 -46t61.5 -137q0 -86 -61 -132t-152 -46q-90 0 -151.5 46t-61.5 132z" />
<glyph unicode="&#x2026;" horiz-adv-x="1533" d="M106 125q0 78 53.5 118t131.5 40t132 -40t54 -118q0 -76 -54 -116t-132 -40t-131.5 40t-53.5 116zM594 125q0 78 53 118t131 40q76 0 130.5 -40t54.5 -118q0 -76 -54.5 -116t-130.5 -40q-78 0 -131 40t-53 116zM1079 125q0 78 53.5 118t131.5 40t131 -40t53 -118 q0 -76 -53.5 -116t-130.5 -40q-78 0 -131.5 40t-53.5 116z" />
<glyph unicode="&#x202f;" horiz-adv-x="361" />
<glyph unicode="&#x2039;" horiz-adv-x="653" d="M80 469v66l389 358l102 -94l-233 -287l233 -291l-102 -94z" />
<glyph unicode="&#x203a;" horiz-adv-x="653" d="M121 221l233 287l-233 291l102 94l389 -342v-66l-389 -358z" />
<glyph unicode="&#x205f;" horiz-adv-x="452" />
<glyph unicode="&#x20ac;" horiz-adv-x="1601" d="M45 422l21 158h901l14 -7l-12 -167l-502 8q55 -147 184 -224t307 -77q92 0 181.5 23.5t156.5 74.5l33 246h164l20 -389q-135 -63 -278 -91t-297 -28q-152 0 -272.5 34.5t-212 97t-152.5 148.5t-94 189zM76 664l20 163h111q31 104 92 191.5t153.5 150t213 97t272.5 34.5 q154 0 297 -25.5t278 -84.5l-20 -391l-164 10l-33 229q-68 51 -156.5 75t-181.5 24q-180 0 -309 -79t-184 -227l522 7l14 -7l-14 -167h-911z" />
<glyph unicode="&#x2122;" horiz-adv-x="1378" d="M55 1051l11 198h497l12 -198l-63 -4l-47 114h-90v-258l57 -8v-74h-233v74l57 8v258h-92l-47 -114zM594 821v74l57 8v262l-57 9v75h240l116 -245l117 245h238v-75l-58 -9v-262l58 -8v-74h-242v74l57 8v254l-166 -338l-32 4l-166 334v-254l47 -8v-74h-209z" />
<glyph unicode="&#xe000;" horiz-adv-x="1024" d="M0 0v1024h1024v-1024h-1024z" />
</font>
</defs>
</svg>
